<svg width="17" height="14" viewBox="0 0 17 14" fill="none" xmlns="http://www.w3.org/2000/svg">
<path d="M1 2.83333C1 2.3913 1.17559 1.96738 1.48816 1.65482C1.80072 1.34226 2.22464 1.16666 2.66667 1.16666H14.3333C14.7754 1.16666 15.1993 1.34226 15.5118 1.65482C15.8244 1.96738 16 2.3913 16 2.83333M1 2.83333V11.1667C1 11.6087 1.17559 12.0326 1.48816 12.3452C1.80072 12.6577 2.22464 12.8333 2.66667 12.8333H14.3333C14.7754 12.8333 15.1993 12.6577 15.5118 12.3452C15.8244 12.0326 16 11.6087 16 11.1667V2.83333M1 2.83333L8.5 7.83333L16 2.83333" stroke="#08314E" stroke-width="1.5" stroke-linecap="round" stroke-linejoin="round"/>
</svg>
