<svg width="20" height="19" viewBox="0 0 20 19" fill="none" xmlns="http://www.w3.org/2000/svg">
<path d="M6.86824 6.11666L1.55157 6.8875L1.45741 6.90666C1.31486 6.94451 1.1849 7.0195 1.08082 7.124C0.97673 7.22849 0.902242 7.35874 0.864958 7.50143C0.827673 7.64413 0.828929 7.79417 0.868595 7.93622C0.908262 8.07828 0.98492 8.20726 1.09074 8.31L4.94241 12.0592L4.03407 17.355L4.02324 17.4467C4.01451 17.5941 4.04513 17.7412 4.11195 17.8729C4.17877 18.0046 4.27939 18.1162 4.40352 18.1963C4.52764 18.2763 4.67081 18.3219 4.81836 18.3284C4.96591 18.3349 5.11254 18.3021 5.24324 18.2333L9.99824 15.7333L14.7424 18.2333L14.8257 18.2717C14.9633 18.3258 15.1128 18.3425 15.2589 18.3198C15.405 18.2971 15.5424 18.236 15.6571 18.1427C15.7717 18.0494 15.8595 17.9273 15.9114 17.7889C15.9633 17.6504 15.9775 17.5007 15.9524 17.355L15.0432 12.0592L18.8966 8.30916L18.9616 8.23833C19.0544 8.12397 19.1153 7.98704 19.138 7.84149C19.1607 7.69594 19.1444 7.54698 19.0908 7.40977C19.0372 7.27257 18.9482 7.15202 18.8328 7.06042C18.7174 6.96883 18.5799 6.90944 18.4341 6.88833L13.1174 6.11666L10.7407 1.3C10.672 1.16044 10.5655 1.04293 10.4334 0.96075C10.3013 0.878575 10.1488 0.835022 9.99324 0.835022C9.83766 0.835022 9.68519 0.878575 9.55308 0.96075C9.42097 1.04293 9.31451 1.16044 9.24574 1.3L6.86824 6.11666Z" fill="#E88325"/>
</svg>
