<svg width="25" height="24" viewBox="0 0 25 24" fill="none" xmlns="http://www.w3.org/2000/svg">
<path d="M12.5 2.25C10.5716 2.25 8.68657 2.82183 7.08319 3.89317C5.47982 4.96451 4.23013 6.48726 3.49218 8.26884C2.75422 10.0504 2.56114 12.0108 2.93735 13.9021C3.31355 15.7934 4.24215 17.5307 5.60571 18.8943C6.96928 20.2579 8.70656 21.1865 10.5979 21.5627C12.4892 21.9389 14.4496 21.7458 16.2312 21.0078C18.0127 20.2699 19.5355 19.0202 20.6068 17.4168C21.6782 15.8134 22.25 13.9284 22.25 12C22.2473 9.41498 21.2192 6.93661 19.3913 5.10872C17.5634 3.28084 15.085 2.25273 12.5 2.25ZM12.5 20.25C10.8683 20.25 9.27326 19.7661 7.91655 18.8596C6.55984 17.9531 5.50242 16.6646 4.878 15.1571C4.25358 13.6496 4.0902 11.9908 4.40853 10.3905C4.72685 8.79016 5.51259 7.32015 6.66637 6.16637C7.82016 5.01259 9.29017 4.22685 10.8905 3.90852C12.4909 3.59019 14.1497 3.75357 15.6571 4.37799C17.1646 5.00242 18.4531 6.05984 19.3596 7.41655C20.2661 8.77325 20.75 10.3683 20.75 12C20.7475 14.1873 19.8775 16.2843 18.3309 17.8309C16.7843 19.3775 14.6873 20.2475 12.5 20.25ZM16.25 13.875C16.25 14.5712 15.9734 15.2389 15.4812 15.7312C14.9889 16.2234 14.3212 16.5 13.625 16.5H13.25V17.25C13.25 17.4489 13.171 17.6397 13.0303 17.7803C12.8897 17.921 12.6989 18 12.5 18C12.3011 18 12.1103 17.921 11.9697 17.7803C11.829 17.6397 11.75 17.4489 11.75 17.25V16.5H10.25C10.0511 16.5 9.86033 16.421 9.71967 16.2803C9.57902 16.1397 9.5 15.9489 9.5 15.75C9.5 15.5511 9.57902 15.3603 9.71967 15.2197C9.86033 15.079 10.0511 15 10.25 15H13.625C13.9234 15 14.2095 14.8815 14.4205 14.6705C14.6315 14.4595 14.75 14.1734 14.75 13.875C14.75 13.5766 14.6315 13.2905 14.4205 13.0795C14.2095 12.8685 13.9234 12.75 13.625 12.75H11.375C10.6788 12.75 10.0111 12.4734 9.51885 11.9812C9.02657 11.4889 8.75 10.8212 8.75 10.125C8.75 9.42881 9.02657 8.76113 9.51885 8.26884C10.0111 7.77656 10.6788 7.5 11.375 7.5H11.75V6.75C11.75 6.55109 11.829 6.36032 11.9697 6.21967C12.1103 6.07902 12.3011 6 12.5 6C12.6989 6 12.8897 6.07902 13.0303 6.21967C13.171 6.36032 13.25 6.55109 13.25 6.75V7.5H14.75C14.9489 7.5 15.1397 7.57902 15.2803 7.71967C15.421 7.86032 15.5 8.05109 15.5 8.25C15.5 8.44891 15.421 8.63968 15.2803 8.78033C15.1397 8.92098 14.9489 9 14.75 9H11.375C11.0766 9 10.7905 9.11853 10.5795 9.3295C10.3685 9.54048 10.25 9.82663 10.25 10.125C10.25 10.4234 10.3685 10.7095 10.5795 10.9205C10.7905 11.1315 11.0766 11.25 11.375 11.25H13.625C14.3212 11.25 14.9889 11.5266 15.4812 12.0188C15.9734 12.5111 16.25 13.1788 16.25 13.875Z" fill="#08314E"/>
</svg>
