<svg width="20" height="20" viewBox="0 0 20 20" fill="none" xmlns="http://www.w3.org/2000/svg">
<g clip-path="url(#clip0_1222_3629)">
<path d="M4.94095 0.621337C5.25078 0.879611 5.5379 1.15749 5.82031 1.44531C5.98482 1.30958 6.13774 1.16851 6.28439 1.01372C6.8927 0.375917 7.62978 0.0168098 8.5206 -0.0109966C9.29963 -0.0220509 9.98261 0.21377 10.5859 0.703124C10.627 0.733739 10.6681 0.764355 10.7104 0.795898C11.265 1.3135 11.6027 2.02246 11.6797 2.77344C11.6816 2.86955 11.6822 2.9657 11.6815 3.06183C11.6813 3.11043 11.681 3.15902 11.6807 3.20909C11.6804 3.2458 11.68 3.2825 11.6797 3.32031C11.7105 3.31996 11.7413 3.31962 11.773 3.31926C12.0676 3.31609 12.3622 3.31373 12.6569 3.31222C12.8082 3.31141 12.9596 3.31033 13.1109 3.30852C14.6324 3.29092 16.042 3.55001 17.3047 4.45312C17.3263 4.46849 17.348 4.48387 17.3703 4.4997C18.2085 5.10374 18.8642 5.88171 19.3359 6.79687C19.36 6.84239 19.384 6.88791 19.4087 6.93481C20.0273 8.17467 20.228 9.78131 19.8828 11.1328C19.8763 11.1591 19.8698 11.1854 19.8631 11.2125C19.4245 12.956 18.3377 14.3789 16.8018 15.2981C16.0649 15.7232 15.2569 15.9743 14.4165 16.0864C14.3812 16.0913 14.3459 16.0961 14.3096 16.1011C13.9233 16.1469 13.5609 16.1328 13.1641 16.1328C13.1641 17.409 13.1641 18.6852 13.1641 20C13.0186 19.9273 12.9514 19.8728 12.8418 19.7583C12.7095 19.6204 12.5706 19.4945 12.4264 19.3695C12.2906 19.2502 12.1599 19.1258 12.0288 19.0015C11.9704 18.9463 11.9119 18.8911 11.8535 18.8359C11.8244 18.8084 11.7953 18.781 11.7653 18.7526C11.6363 18.6309 11.5067 18.5097 11.377 18.3887C11.3408 18.355 11.3408 18.355 11.304 18.3206C11.1301 18.1585 10.9555 17.9973 10.7806 17.8363C10.6107 17.6796 10.4419 17.5215 10.2734 17.3633C9.90353 17.0136 9.90353 17.0136 9.52689 16.6714C9.45312 16.6016 9.45312 16.6016 9.35563 16.4934C9.14845 16.2714 8.99852 16.1461 8.68271 16.1241C8.60177 16.1231 8.52142 16.1243 8.44054 16.1273C8.35489 16.1304 8.26956 16.131 8.18386 16.1309C8.07116 16.1307 7.95851 16.1313 7.84582 16.1326C6.14816 16.1354 4.59404 15.3439 3.39355 14.187C2.17676 12.9348 1.57146 11.2548 1.59332 9.52225C1.61872 8.59989 1.85945 7.75425 2.22656 6.91406C2.25277 6.84902 2.27884 6.78393 2.30469 6.71875C2.28638 6.7007 2.26808 6.68266 2.24922 6.66407C2.05682 6.47428 1.86485 6.28407 1.67312 6.09362C1.60174 6.02282 1.53025 5.95213 1.45865 5.88156C0.628971 5.06341 -0.00922007 4.30543 -0.0195312 3.08594C-0.0122161 2.28695 0.236344 1.57121 0.78125 0.976562C0.814257 0.939552 0.814257 0.939552 0.847931 0.901794C1.89795 -0.21462 3.74892 -0.305202 4.94095 0.621337ZM1.64062 1.83594C1.26734 2.31816 1.13704 2.83735 1.21094 3.4375C1.3208 4.00105 1.69761 4.36573 2.09083 4.75594C2.13168 4.79677 2.17251 4.83762 2.21333 4.87848C2.32322 4.9884 2.43335 5.09807 2.54353 5.2077C2.65898 5.32266 2.77422 5.43786 2.88948 5.55302C3.10734 5.77065 3.32541 5.98807 3.54354 6.20542C3.79206 6.45306 4.04034 6.70092 4.28862 6.9488C4.79893 7.4583 5.30953 7.96752 5.82031 8.47656C6.05353 8.28297 6.26806 8.07415 6.48262 7.86023C6.52108 7.82202 6.55955 7.78381 6.59802 7.74561C6.72344 7.621 6.84866 7.49619 6.97388 7.37137C7.01724 7.32816 7.06061 7.28495 7.10398 7.24174C7.30775 7.03872 7.51142 6.8356 7.71498 6.63237C7.94896 6.39877 8.18326 6.16551 8.41783 5.93251C8.59984 5.75168 8.78155 5.57055 8.96304 5.38919C9.07112 5.2812 9.17932 5.17334 9.28785 5.0658C9.39003 4.96453 9.49183 4.8629 9.59335 4.76097C9.64787 4.70642 9.70278 4.65226 9.7577 4.59811C10.1757 4.17673 10.4686 3.70892 10.4785 3.10303C10.4724 2.55189 10.2756 2.13067 9.90326 1.73294C9.50089 1.3561 9.02768 1.19655 8.48389 1.20254C7.58896 1.26286 7.02402 1.99335 6.43555 2.58545C6.37935 2.64184 6.32315 2.69822 6.26694 2.75459C6.13098 2.89098 5.99514 3.02748 5.85938 3.16406C5.73343 3.1088 5.65106 3.04275 5.55532 2.94453C5.52688 2.91557 5.49843 2.88661 5.46913 2.85678C5.43869 2.82545 5.40825 2.79412 5.37689 2.76184C5.31154 2.6955 5.24619 2.62918 5.18082 2.56287C5.07833 2.45845 4.97597 2.35391 4.87383 2.24914C4.77494 2.14788 4.67556 2.04712 4.57611 1.94641C4.54615 1.9154 4.51619 1.88438 4.48532 1.85243C4.09435 1.45793 3.62814 1.21339 3.06641 1.19873C2.53035 1.204 2.00457 1.44303 1.64062 1.83594ZM11.2127 4.60451C11.1568 4.69928 11.1568 4.69928 11.1154 4.80321C11.0468 4.93736 10.9668 5.02969 10.8637 5.13946C10.8448 5.15964 10.8259 5.17983 10.8065 5.20062C10.5885 5.43205 10.3639 5.65691 10.1388 5.88131C10.0917 5.92832 10.0447 5.97534 9.99771 6.02237C9.8716 6.14849 9.74537 6.27449 9.61911 6.40047C9.48663 6.53271 9.35425 6.66507 9.22186 6.79741C8.97183 7.04732 8.7217 7.29713 8.47153 7.54691C8.18644 7.83156 7.90146 8.11633 7.61648 8.4011C7.03091 8.98628 6.44519 9.57131 5.85938 10.1562C5.69752 10.0819 5.58694 9.97238 5.46307 9.84693C5.4276 9.81148 5.4276 9.81148 5.39142 9.77532C5.31345 9.6973 5.23577 9.61901 5.15808 9.54071C5.10402 9.48651 5.04995 9.43232 4.99585 9.37815C4.85363 9.23563 4.71165 9.09287 4.56971 8.95007C4.42479 8.80435 4.27964 8.65885 4.13452 8.51334C3.84988 8.22786 3.56549 7.94213 3.28125 7.65625C2.99 8.02662 2.92291 8.56793 2.85156 9.02344C2.84638 9.05451 2.84119 9.08557 2.83585 9.11758C2.66038 10.3651 3.03323 11.7268 3.77594 12.7353C3.80605 12.7737 3.83616 12.812 3.86719 12.8516C3.88354 12.8725 3.89989 12.8934 3.91674 12.9149C4.78928 14.019 6.03196 14.719 7.42984 14.8936C7.66934 14.9197 7.90397 14.9249 8.14468 14.9219C8.22192 14.9218 8.29915 14.9219 8.37639 14.922C8.49634 14.9222 8.61617 14.9219 8.7361 14.9199C9.4062 14.9097 9.4062 14.9097 9.61956 15.0368C9.70659 15.1242 9.77378 15.2114 9.84375 15.3125C9.89611 15.3612 9.94968 15.4087 10.0049 15.4541C10.1283 15.5599 10.2427 15.6714 10.3565 15.7874C10.427 15.8567 10.4995 15.9215 10.5745 15.9859C10.7411 16.1307 10.9019 16.2812 11.062 16.4331C11.1199 16.4878 11.1779 16.5425 11.2358 16.5971C11.2643 16.624 11.2928 16.651 11.3222 16.6787C11.4475 16.7966 11.5731 16.9142 11.6992 17.0312C11.7205 17.0512 11.7418 17.0711 11.7638 17.0916C11.8461 17.1852 11.8461 17.1852 11.9531 17.2266C11.9531 16.466 11.9531 15.7055 11.9531 14.9219C12.8784 14.9292 12.8784 14.9292 13.1648 14.9324C14.6419 14.9421 16.0082 14.5755 17.1094 13.5547C17.1308 13.5349 17.1523 13.5152 17.1744 13.4949C18.0855 12.6472 18.729 11.4406 18.796 10.1827C18.8073 9.54758 18.8111 8.93604 18.6328 8.32031C18.6209 8.27829 18.6209 8.27829 18.6087 8.23542C18.2277 6.94057 17.3058 5.79939 16.1248 5.1478C15.291 4.70754 14.4449 4.52178 13.506 4.50989C13.4749 4.50947 13.4437 4.50906 13.4117 4.50863C13.2475 4.50656 13.0834 4.50504 12.9192 4.5039C12.7841 4.50285 12.649 4.50066 12.5139 4.49749C12.3494 4.49364 12.185 4.4917 12.0205 4.49115C11.9582 4.49062 11.8959 4.48944 11.8337 4.48756C11.4984 4.46556 11.4984 4.46556 11.2127 4.60451Z" fill="#34C759"/>
<path d="M7.57812 9.375C8.00352 9.375 8.42891 9.375 8.86719 9.375C8.86719 9.77461 8.86719 10.1742 8.86719 10.5859C8.4418 10.5859 8.01641 10.5859 7.57812 10.5859C7.57812 10.1863 7.57812 9.78672 7.57812 9.375Z" fill="#34C759"/>
<path d="M13.0859 9.375C13.4984 9.375 13.9109 9.375 14.3359 9.375C14.3359 9.77461 14.3359 10.1742 14.3359 10.5859C13.9234 10.5859 13.5109 10.5859 13.0859 10.5859C13.0859 10.1863 13.0859 9.78672 13.0859 9.375Z" fill="#34C759"/>
<path d="M10.3516 9.375C10.7641 9.375 11.1766 9.375 11.6016 9.375C11.6016 9.77461 11.6016 10.1742 11.6016 10.5859C11.1891 10.5859 10.7766 10.5859 10.3516 10.5859C10.3516 10.1863 10.3516 9.78672 10.3516 9.375Z" fill="#34C759"/>
</g>
<defs>
<clipPath id="clip0_1222_3629">
<rect width="20" height="20" fill="white"/>
</clipPath>
</defs>
</svg>
