<svg width="28" height="28" viewBox="0 0 28 28" fill="none" xmlns="http://www.w3.org/2000/svg">
<path d="M13 25H3.66667C2.95942 25 2.28115 24.719 1.78105 24.219C1.28095 23.7189 1 23.0406 1 22.3333V3.66667C1 2.95942 1.28095 2.28115 1.78105 1.78105C2.28115 1.28095 2.95942 1 3.66667 1H22.3333C23.0406 1 23.7189 1.28095 24.219 1.78105C24.719 2.28115 25 2.95942 25 3.66667V13M1 10.3333H25M10.3333 1V25M22.3333 27C22.6071 25.8683 23.1875 24.8341 24.0108 24.0108C24.8341 23.1875 25.8683 22.6071 27 22.3333C25.8683 22.0596 24.8341 21.4792 24.0108 20.6559C23.1875 19.8326 22.6071 18.7983 22.3333 17.6667C22.0596 18.7983 21.4792 19.8326 20.6559 20.6559C19.8326 21.4792 18.7983 22.0596 17.6667 22.3333C18.7983 22.6071 19.8326 23.1875 20.6559 24.0108C21.4792 24.8341 22.0596 25.8683 22.3333 27Z" stroke="#08314E" stroke-width="2" stroke-linecap="round" stroke-linejoin="round"/>
</svg>
