<svg width="24" height="24" viewBox="0 0 24 24" fill="none" xmlns="http://www.w3.org/2000/svg">
<g clip-path="url(#clip0_1157_1823)">
<path d="M17 3.34C18.5083 4.21086 19.7629 5.46053 20.6398 6.9653C21.5167 8.47007 21.9854 10.1778 21.9994 11.9193C22.0135 13.6609 21.5725 15.376 20.72 16.8947C19.8676 18.4134 18.6332 19.6832 17.1392 20.5783C15.6452 21.4734 13.9434 21.9628 12.2021 21.9981C10.4608 22.0333 8.74055 21.6132 7.21155 20.7792C5.68256 19.9453 4.39787 18.7265 3.48467 17.2435C2.57146 15.7605 2.06141 14.0647 2.005 12.324L2 12L2.005 11.676C2.061 9.94899 2.56355 8.26596 3.46364 6.79099C4.36373 5.31602 5.63065 4.09945 7.14089 3.25988C8.65113 2.42031 10.3531 1.9864 12.081 2.00044C13.8089 2.01448 15.5036 2.476 17 3.34ZM15.707 9.293C15.5348 9.12082 15.3057 9.01739 15.0627 9.00211C14.8197 8.98683 14.5794 9.06075 14.387 9.21L14.293 9.293L11 12.585L9.707 11.293L9.613 11.21C9.42058 11.0609 9.18037 10.987 8.9374 11.0024C8.69444 11.0177 8.46541 11.1211 8.29326 11.2933C8.12112 11.4654 8.01768 11.6944 8.00235 11.9374C7.98702 12.1804 8.06086 12.4206 8.21 12.613L8.293 12.707L10.293 14.707L10.387 14.79C10.5624 14.9261 10.778 14.9999 11 14.9999C11.222 14.9999 11.4376 14.9261 11.613 14.79L11.707 14.707L15.707 10.707L15.79 10.613C15.9393 10.4206 16.0132 10.1803 15.9979 9.93732C15.9826 9.69429 15.8792 9.46519 15.707 9.293Z" fill="#34C759"/>
</g>
<defs>
<clipPath id="clip0_1157_1823">
<rect width="24" height="24" fill="white"/>
</clipPath>
</defs>
</svg>
