<svg width="26" height="26" viewBox="0 0 26 26" fill="none" xmlns="http://www.w3.org/2000/svg">
<path d="M1 7V4C1 3.20435 1.31607 2.44129 1.87868 1.87868C2.44129 1.31607 3.20435 1 4 1H7M1 19V22C1 22.7957 1.31607 23.5587 1.87868 24.1213C2.44129 24.6839 3.20435 25 4 25H7M19 1H22C22.7957 1 23.5587 1.31607 24.1213 1.87868C24.6839 2.44129 25 3.20435 25 4V7M19 25H22C22.7957 25 23.5587 24.6839 24.1213 24.1213C24.6839 23.5587 25 22.7957 25 22V19M7.90449 9.41523C8.18934 9.12497 8.5292 8.8944 8.9042 8.737C9.27919 8.5796 9.6818 8.49854 10.0885 8.49854C10.4952 8.49854 10.8978 8.5796 11.2728 8.737C11.6478 8.8944 11.9876 9.12497 12.2725 9.41523L13 10.0002L13.75 9.40623C14.0346 9.11916 14.3735 8.89149 14.7469 8.73643C15.1202 8.58138 15.5207 8.50204 15.9249 8.50302C16.3292 8.504 16.7293 8.58527 17.1019 8.74212C17.4745 8.89898 17.8122 9.12828 18.0955 9.41673C18.6753 10.0069 19.0002 10.8012 19.0002 11.6285C19.0002 12.4558 18.6753 13.2501 18.0955 13.8402L13 19.0002L7.90449 13.8402C7.32424 13.25 6.99908 12.4554 6.99908 11.6277C6.99908 10.8 7.32424 10.0055 7.90449 9.41523Z" stroke="#08314E" stroke-width="2" stroke-linecap="round" stroke-linejoin="round"/>
</svg>
