<svg width="20" height="20" viewBox="0 0 20 20" fill="none" xmlns="http://www.w3.org/2000/svg">
<g clip-path="url(#clip0_286_262)">
<path d="M10.0002 11.6666C8.89509 11.6666 7.83529 11.2276 7.05388 10.4462C6.27248 9.6648 5.8335 8.60499 5.8335 7.49992C5.8335 6.39485 6.27248 5.33504 7.05388 4.55364C7.83529 3.77224 8.89509 3.33325 10.0002 3.33325C11.1052 3.33325 12.165 3.77224 12.9464 4.55364C13.7278 5.33504 14.1668 6.39485 14.1668 7.49992C14.1668 8.60499 13.7278 9.6648 12.9464 10.4462C12.165 11.2276 11.1052 11.6666 10.0002 11.6666ZM10.0002 11.6666V17.4999M7.50016 14.9999H12.5002" stroke="#08314E" stroke-width="1.5" stroke-linecap="round" stroke-linejoin="round"/>
</g>
<defs>
<clipPath id="clip0_286_262">
<rect width="20" height="20" fill="white"/>
</clipPath>
</defs>
</svg>
