<svg width="20" height="20" viewBox="0 0 20 20" fill="none" xmlns="http://www.w3.org/2000/svg">
<path d="M11.4182 16.464L11.3118 17.0798C11.2246 17.0647 11.1375 17.0495 11.0503 17.0342C10.0271 16.8552 9.09986 16.9973 8.08827 17.1764C6.32447 17.4877 5.76623 17.5863 5.30312 17.4199C5.08868 17.3429 4.89463 17.2091 4.61073 17.0133L11.4182 16.464ZM11.4182 16.464C11.5597 16.4884 11.7018 16.513 11.844 16.5378L11.8452 16.538C11.9045 16.5485 11.9633 16.5589 12.0216 16.5693C12.6817 16.6866 13.2749 16.7921 13.867 16.7768C14.465 16.754 14.9068 16.6435 15.2059 16.354L15.2355 16.3099L15.2456 16.2948L15.2565 16.2804C15.4735 15.9934 15.5607 15.6444 15.5599 15.1899C15.5179 13.5713 14.705 11.8691 13.5237 10.7196L13.4315 10.6321L13.4308 10.6314C13.3285 10.534 13.2298 10.4411 13.1302 10.3519C11.1957 8.65366 8.40778 8.71564 6.61576 10.5862C6.57112 10.6344 6.52453 10.6845 6.4769 10.7347L6.47632 10.7353C6.27375 10.9483 6.0903 11.1474 5.92708 11.3563L5.85912 11.446L5.85805 11.4474C4.95461 12.6338 4.33121 14.1641 4.46196 15.567C4.53262 16.0018 4.68429 16.2875 4.97474 16.5051C5.42458 16.8152 5.51387 16.8624 5.74746 16.8733C6.09327 16.8895 6.64593 16.7963 7.97932 16.561C8.99038 16.382 10.0155 16.2187 11.158 16.4186L11.1586 16.4187C11.2451 16.4339 11.3316 16.449 11.4182 16.464ZM8.31836 2.77872C8.89871 3.39599 9.08169 4.25762 9.06917 5.24287C9.04346 6.02691 8.75274 6.7882 8.22584 7.29624C7.9023 7.57423 7.53484 7.69278 7.08372 7.67494C6.75708 7.64234 6.4224 7.43468 6.12179 7.10302C5.58154 6.43201 5.38373 5.49068 5.47337 4.55703C5.54982 3.88382 5.77076 3.29215 6.18139 2.83832L6.1815 2.83842L6.19016 2.82842L6.25506 2.75357C6.46095 2.53327 6.73439 2.37758 7.02066 2.31964L7.02068 2.31977L7.03328 2.31695L7.0885 2.30458C7.4942 2.24177 7.91744 2.41566 8.31836 2.77872ZM11.038 5.92916L11.0381 5.92914L11.0356 5.92017L11.0044 5.80618C10.8139 4.97398 10.9221 3.97218 11.3319 3.26836C11.6699 2.75725 11.9986 2.44907 12.4612 2.32597C12.9059 2.24456 13.3188 2.37752 13.7131 2.71263C14.2751 3.24541 14.5229 4.04184 14.5586 4.92834C14.5726 5.79774 14.3208 6.63693 13.7758 7.21626C13.479 7.51344 13.1341 7.67163 12.7587 7.67841C12.371 7.67463 12.0196 7.51833 11.7053 7.21818C11.3781 6.84816 11.1666 6.42745 11.038 5.92916ZM18.4439 9.38961L18.4438 9.3896L18.4418 9.3964L18.4075 9.51238C18.2903 9.8686 18.0978 10.1644 17.8133 10.4489L17.8133 10.4488L17.8068 10.4555L17.7406 10.5237C17.4926 10.7593 17.1552 10.8962 16.8002 10.9062C16.492 10.8881 16.2345 10.7682 16.0209 10.5438C15.7117 10.1488 15.6128 9.65924 15.6693 9.06857C15.7588 8.4147 16.0417 7.85987 16.5188 7.46293C16.6566 7.36491 16.7888 7.28815 16.9239 7.23189L16.9239 7.23201L16.9356 7.22689L16.9898 7.20299C17.3072 7.09108 17.6992 7.14115 17.9876 7.32689C18.2809 7.56142 18.4692 7.89889 18.5266 8.28866C18.5575 8.70371 18.5441 9.06442 18.4439 9.38961ZM1.79874 9.94507L1.7988 9.94503L1.79384 9.93647L1.74999 9.86088C1.68174 9.73378 1.62915 9.59296 1.572 9.41326L1.57199 9.41322L1.55045 9.3455C1.39504 8.83105 1.43844 8.23824 1.65934 7.74068C1.8152 7.45952 2.03382 7.27285 2.31346 7.1803C2.68132 7.11514 3.01152 7.16448 3.29935 7.33145C3.85754 7.71732 4.17914 8.25275 4.32516 8.95572C4.40277 9.50705 4.34233 9.99589 4.09856 10.389C3.85573 10.6987 3.6294 10.8454 3.32445 10.8892C2.98813 10.9263 2.6746 10.8354 2.3701 10.6137C2.1229 10.4084 1.94232 10.2019 1.79874 9.94507Z" stroke="white" stroke-width="1.25"/>
</svg>
