<svg width="24" height="24" viewBox="0 0 24 24" fill="none" xmlns="http://www.w3.org/2000/svg">
<g clip-path="url(#clip0_262_475)">
<path d="M6.97913 3.07401C7.86419 2.92321 8.77181 2.97296 9.63509 3.21958C10.4984 3.46621 11.2953 3.90343 11.9671 4.49901L12.0041 4.53201L12.0381 4.50201C12.6793 3.93931 13.4331 3.51981 14.2493 3.27149C15.0655 3.02318 15.9252 2.95177 16.7711 3.06201L17.0171 3.09801C18.0834 3.28212 19.0801 3.75117 19.9016 4.45548C20.7231 5.1598 21.3388 6.07316 21.6836 7.09885C22.0283 8.12454 22.0893 9.22437 21.86 10.2819C21.6307 11.3394 21.1197 12.3152 20.3811 13.106L20.2011 13.291L20.1531 13.332L12.7031 20.711C12.5312 20.8812 12.3034 20.9832 12.062 20.9983C11.8206 21.0134 11.5819 20.9405 11.3901 20.793L11.2961 20.711L3.80313 13.289C3.00935 12.5167 2.44483 11.5397 2.17209 10.4663C1.89935 9.39287 1.92903 8.26491 2.25785 7.20733C2.58666 6.14974 3.20179 5.20381 4.03509 4.47428C4.86839 3.74476 5.88735 3.26011 6.97913 3.07401Z" fill="#FF3B30"/>
</g>
<defs>
<clipPath id="clip0_262_475">
<rect width="24" height="24" fill="white"/>
</clipPath>
</defs>
</svg>
