<svg width="18" height="18" viewBox="0 0 18 18" fill="none" xmlns="http://www.w3.org/2000/svg">
<g clip-path="url(#clip0_605_1811)">
<path d="M1.3 6.25H16.7M1.3 11.75H16.7M8.54167 0.75C6.99739 3.22464 6.17869 6.08304 6.17869 9C6.17869 11.917 6.99739 14.7754 8.54167 17.25M9.45833 0.75C11.0026 3.22464 11.8213 6.08304 11.8213 9C11.8213 11.917 11.0026 14.7754 9.45833 17.25M0.75 9C0.75 10.0834 0.963392 11.1562 1.37799 12.1571C1.79259 13.1581 2.40029 14.0675 3.16637 14.8336C3.93245 15.5997 4.84193 16.2074 5.84286 16.622C6.8438 17.0366 7.91659 17.25 9 17.25C10.0834 17.25 11.1562 17.0366 12.1571 16.622C13.1581 16.2074 14.0675 15.5997 14.8336 14.8336C15.5997 14.0675 16.2074 13.1581 16.622 12.1571C17.0366 11.1562 17.25 10.0834 17.25 9C17.25 6.81196 16.3808 4.71354 14.8336 3.16637C13.2865 1.61919 11.188 0.75 9 0.75C6.81196 0.75 4.71354 1.61919 3.16637 3.16637C1.61919 4.71354 0.75 6.81196 0.75 9Z" stroke="#08314E" stroke-width="1.5" stroke-linecap="round" stroke-linejoin="round"/>
</g>
<defs>
<clipPath id="clip0_605_1811">
<rect width="18" height="18" fill="white"/>
</clipPath>
</defs>
</svg>
