<svg width="14" height="17" viewBox="0 0 14 17" fill="none" xmlns="http://www.w3.org/2000/svg">
<path d="M0.333008 2.16667C0.333024 2.05585 0.355142 1.94615 0.398069 1.84398C0.440995 1.74182 0.503868 1.64924 0.583008 1.57167C1.49121 0.681363 2.70455 0.170608 3.97605 0.143361C5.24756 0.116113 6.48166 0.574421 7.42717 1.425L7.71967 1.69833C8.32753 2.23091 9.10817 2.52452 9.91634 2.52452C10.7245 2.52452 11.5052 2.23091 12.113 1.69833L12.3205 1.50917C12.8288 1.10667 13.593 1.42833 13.6622 2.0725L13.6663 2.16667V9.66667C13.6663 9.77748 13.6442 9.88718 13.6013 9.98935C13.5584 10.0915 13.4955 10.1841 13.4163 10.2617C12.5081 11.152 11.2948 11.6627 10.0233 11.69C8.75179 11.7172 7.51768 11.2589 6.57217 10.4083L6.27967 10.135C5.69095 9.61917 4.93948 9.32697 4.15694 9.3096C3.3744 9.29223 2.6107 9.5508 1.99967 10.04V15.5C1.99944 15.7124 1.91811 15.9167 1.7723 16.0711C1.62649 16.2256 1.42721 16.3185 1.21518 16.331C1.00314 16.3434 0.794358 16.2744 0.631481 16.1381C0.468603 16.0018 0.363927 15.8084 0.338841 15.5975L0.333008 15.5V2.16667Z" fill="#08314E" fill-opacity="0.6"/>
</svg>
