<svg width="21" height="20" viewBox="0 0 21 20" fill="none" xmlns="http://www.w3.org/2000/svg">
<g clip-path="url(#clip0_235_3693)">
<path d="M18 17.5L13 12.5M3 8.33333C3 9.09938 3.15088 9.85792 3.44404 10.5657C3.73719 11.2734 4.16687 11.9164 4.70854 12.4581C5.25022 12.9998 5.89328 13.4295 6.60101 13.7226C7.30875 14.0158 8.06729 14.1667 8.83333 14.1667C9.59938 14.1667 10.3579 14.0158 11.0657 13.7226C11.7734 13.4295 12.4164 12.9998 12.9581 12.4581C13.4998 11.9164 13.9295 11.2734 14.2226 10.5657C14.5158 9.85792 14.6667 9.09938 14.6667 8.33333C14.6667 7.56729 14.5158 6.80875 14.2226 6.10101C13.9295 5.39328 13.4998 4.75022 12.9581 4.20854C12.4164 3.66687 11.7734 3.23719 11.0657 2.94404C10.3579 2.65088 9.59938 2.5 8.83333 2.5C8.06729 2.5 7.30875 2.65088 6.60101 2.94404C5.89328 3.23719 5.25022 3.66687 4.70854 4.20854C4.16687 4.75022 3.73719 5.39328 3.44404 6.10101C3.15088 6.80875 3 7.56729 3 8.33333Z" stroke="white" stroke-width="1.25" stroke-linecap="round" stroke-linejoin="round"/>
</g>
<defs>
<clipPath id="clip0_235_3693">
<rect width="20" height="20" fill="white" transform="translate(0.5)"/>
</clipPath>
</defs>
</svg>
