<svg width="25" height="24" viewBox="0 0 25 24" fill="none" xmlns="http://www.w3.org/2000/svg">
<g clip-path="url(#clip0_235_3666)">
<path d="M12.5 8L8.64286 11.8571M12.5 8H8.92857M12.5 8V11.5714M19 13.0588C18.0717 13.0588 17.1815 12.687 16.5251 12.0251C15.8687 11.3632 15.5 10.4655 15.5 9.52941C15.5 8.59335 15.8687 7.69563 16.5251 7.03374C17.1815 6.37185 18.0717 6 19 6C19.9283 6 20.8185 6.37185 21.4749 7.03374C22.1313 7.69563 22.5 8.59335 22.5 9.52941C22.5 10.4655 22.1313 11.3632 21.4749 12.0251C20.8185 12.687 19.9283 13.0588 19 13.0588ZM19 13.0588V18M16.9 15.8824H21.1M2.5 14.4286C2.5 15.3758 2.87627 16.2842 3.54605 16.954C4.21582 17.6237 5.12423 18 6.07143 18C7.01863 18 7.92704 17.6237 8.59681 16.954C9.26658 16.2842 9.64286 15.3758 9.64286 14.4286C9.64286 13.4814 9.26658 12.573 8.59681 11.9032C7.92704 11.2334 7.01863 10.8571 6.07143 10.8571C5.12423 10.8571 4.21582 11.2334 3.54605 11.9032C2.87627 12.573 2.5 13.4814 2.5 14.4286Z" stroke="#08314E" stroke-width="1.5" stroke-linecap="round" stroke-linejoin="round"/>
</g>
<defs>
<clipPath id="clip0_235_3666">
<rect width="24" height="24" fill="white" transform="translate(0.5)"/>
</clipPath>
</defs>
</svg>
