<svg width="20" height="14" viewBox="0 0 20 14" fill="none" xmlns="http://www.w3.org/2000/svg">
<path d="M15.7419 0.671875C15.7419 4.59063 15.7419 8.50938 15.7419 12.5469C15.5769 12.4919 15.4616 12.4493 15.3169 12.3651C15.2814 12.3447 15.2458 12.3242 15.2092 12.3032C15.1715 12.2813 15.1338 12.2594 15.0949 12.2368C13.0032 11.0428 10.7462 10.2954 8.39567 9.79785C8.36454 9.79123 8.33342 9.78461 8.30135 9.77779C8.21112 9.75871 8.12084 9.73992 8.03052 9.72125C7.99182 9.71309 7.99182 9.71309 7.95234 9.70477C7.68613 9.65058 7.41716 9.61506 7.14811 9.57812C7.16352 9.64773 7.16352 9.64773 7.17925 9.71874C7.27587 10.155 7.37244 10.5913 7.46897 11.0276C7.51861 11.252 7.56826 11.4763 7.61794 11.7006C7.66585 11.9169 7.71371 12.1332 7.76155 12.3495C7.77985 12.4322 7.79817 12.515 7.8165 12.5977C7.84208 12.7131 7.8676 12.8285 7.89312 12.944C7.90079 12.9785 7.90846 13.0131 7.91636 13.0487C7.96842 13.2846 7.96842 13.2846 7.96842 13.3281C6.98873 13.3281 6.00904 13.3281 4.99967 13.3281C4.94896 13.2013 4.90994 13.1002 4.88101 12.971C4.874 12.94 4.86699 12.9091 4.85977 12.8772C4.85238 12.8438 4.84499 12.8105 4.83737 12.7761C4.82936 12.7405 4.82135 12.7049 4.81309 12.6682C4.78672 12.5508 4.76059 12.4334 4.73447 12.316C4.7162 12.2343 4.69792 12.1527 4.67963 12.071C4.64137 11.9 4.60323 11.7289 4.56518 11.5579C4.51636 11.3385 4.46725 11.1192 4.41805 10.8999C4.38027 10.7313 4.34264 10.5627 4.30506 10.3941C4.28701 10.3132 4.26891 10.2324 4.25076 10.1515C4.22545 10.0386 4.20034 9.92562 4.17529 9.81264C4.16775 9.77918 4.1602 9.74571 4.15242 9.71123C4.14563 9.6804 4.13884 9.64957 4.13185 9.61781C4.12293 9.57779 4.12293 9.57779 4.11383 9.53696C4.10123 9.46094 4.10123 9.46094 4.10123 9.30469C4.04987 9.30551 3.9985 9.30632 3.94558 9.30717C3.7523 9.31003 3.55901 9.3118 3.36571 9.31327C3.28256 9.31405 3.19941 9.31511 3.11627 9.31647C2.20117 9.33111 1.42872 9.18376 0.741857 8.52344C0.246396 8.01605 -0.025083 7.34714 -0.0174202 6.63867C-0.0170961 6.59955 -0.0167719 6.56043 -0.0164379 6.52013C0.000868481 5.75434 0.318886 5.10027 0.870946 4.56973C1.47247 4.05597 2.18705 3.88911 2.95734 3.89628C3.05659 3.89716 3.1558 3.89698 3.25505 3.89657C3.50211 3.89574 3.74915 3.89638 3.9962 3.89741C5.02439 3.90165 6.01543 3.84533 7.03092 3.67969C7.09667 3.66909 7.09667 3.66909 7.16375 3.65827C7.40115 3.61927 7.63729 3.57539 7.8732 3.52832C7.94216 3.51486 8.01111 3.50141 8.08007 3.48796C8.65925 3.37388 9.23308 3.24264 9.80436 3.09375C9.84848 3.08251 9.8926 3.07127 9.93806 3.05968C11.1348 2.75333 12.3126 2.35613 13.4372 1.84375C13.4752 1.82655 13.5133 1.80936 13.5524 1.79164C14.0588 1.56118 14.5456 1.30347 15.0271 1.02512C15.1742 0.940267 15.3218 0.856376 15.4703 0.773956C15.5054 0.754384 15.5406 0.734812 15.5769 0.714647C15.6637 0.671875 15.6637 0.671875 15.7419 0.671875ZM14.2344 2.83954C14.189 2.86045 14.1436 2.88137 14.0967 2.90292C14.0724 2.91413 14.0481 2.92534 14.0231 2.9369C13.4475 3.20151 12.8635 3.4317 12.2653 3.64062C12.2289 3.6534 12.1924 3.66617 12.1549 3.67933C10.3553 4.3058 8.48378 4.73431 6.59638 4.98795C6.55481 4.99355 6.55481 4.99355 6.5124 4.99927C6.43763 5.00928 6.36283 5.01907 6.28804 5.02885C6.16984 5.04381 6.16984 5.04381 6.05436 5.08594C6.05436 6.09141 6.05436 7.09688 6.05436 8.13281C6.2892 8.17978 6.51825 8.22413 6.75428 8.25885C6.81272 8.26761 6.87116 8.2764 6.9296 8.28521C6.97515 8.29207 6.97515 8.29207 7.02161 8.29907C9.48317 8.67328 12.1303 9.24629 14.3378 10.4419C14.4176 10.4847 14.4176 10.4847 14.5309 10.4766C14.5309 7.92422 14.5309 5.37187 14.5309 2.74219C14.4168 2.74219 14.3378 2.79141 14.2344 2.83954ZM1.56217 5.63281C1.26584 5.99624 1.1674 6.37896 1.21061 6.84375C1.26923 7.22597 1.49223 7.55722 1.79166 7.79834C2.21303 8.08477 2.63773 8.09968 3.13062 8.09756C3.19586 8.09751 3.19586 8.09751 3.26242 8.09745C3.42403 8.09724 3.58563 8.0967 3.74723 8.09619C4.10897 8.09539 4.47071 8.09458 4.84342 8.09375C4.84342 7.11406 4.84342 6.13438 4.84342 5.125C4.30443 5.12258 4.30443 5.12258 3.75455 5.12012C3.58552 5.11905 3.58552 5.11905 3.41308 5.11796C3.32274 5.11773 3.2324 5.11753 3.14206 5.11737C3.09599 5.11697 3.04991 5.11657 3.00244 5.11616C2.45619 5.11604 1.94854 5.21614 1.56217 5.63281ZM5.35123 9.30469C5.47339 9.94443 5.61064 10.5805 5.75162 11.2163C5.76045 11.2563 5.76928 11.2963 5.77838 11.3375C5.80372 11.4521 5.82922 11.5667 5.85477 11.6812C5.86636 11.7337 5.86636 11.7337 5.87818 11.7872C5.88537 11.8192 5.89257 11.8513 5.89998 11.8843C5.90937 11.9265 5.90937 11.9265 5.91896 11.9695C5.9355 12.0424 5.9355 12.0424 5.97623 12.1172C6.11803 12.1172 6.25983 12.1172 6.40592 12.1172C6.37958 11.8156 6.31933 11.5264 6.25333 11.2313C6.24208 11.1804 6.23085 11.1295 6.21962 11.0786C6.19623 10.9727 6.17271 10.8668 6.1491 10.7609C6.11885 10.6252 6.08881 10.4895 6.05886 10.3538C6.03018 10.2239 6.00137 10.094 5.97257 9.96417C5.96179 9.91547 5.951 9.86676 5.93989 9.81658C5.92985 9.77158 5.91982 9.72659 5.90947 9.68023C5.90066 9.6406 5.89184 9.60098 5.88276 9.56016C5.85964 9.45704 5.85964 9.45704 5.81998 9.34375C5.66529 9.33086 5.51061 9.31797 5.35123 9.30469Z" fill="#34C759"/>
<path d="M17.0309 8.17188C17.1823 8.19384 17.2525 8.26108 17.3597 8.36708C17.3935 8.4002 17.4272 8.43333 17.462 8.46745C17.5161 8.52152 17.5161 8.52152 17.5712 8.57669C17.6088 8.61393 17.6463 8.65116 17.6838 8.68838C17.7623 8.76636 17.8406 8.84458 17.9187 8.92294C18.019 9.02344 18.12 9.12321 18.2211 9.2228C18.2988 9.29944 18.376 9.37652 18.4531 9.45373C18.5082 9.50872 18.5637 9.56328 18.6192 9.61783C18.6523 9.65132 18.6854 9.68481 18.7196 9.71932C18.749 9.74869 18.7785 9.77807 18.8088 9.80833C18.8669 9.89062 18.8669 9.89062 18.8613 9.97387C18.8117 10.082 18.7378 10.1499 18.6531 10.233C18.618 10.2678 18.5828 10.3025 18.5467 10.3383C18.5097 10.3743 18.4728 10.4102 18.4347 10.4473C18.3972 10.4842 18.3598 10.5211 18.3223 10.558C18.2307 10.6483 18.1387 10.7383 18.0465 10.8281C17.8232 10.6425 17.6178 10.4435 17.4132 10.2376C17.3797 10.2041 17.3463 10.1706 17.3119 10.1361C17.2059 10.03 17.1001 9.92369 16.9943 9.81738C16.9222 9.74505 16.85 9.67272 16.7779 9.6004C16.6017 9.42381 16.4256 9.2471 16.2497 9.07031C16.3069 8.95045 16.3639 8.86902 16.4595 8.77612C16.4851 8.7509 16.5108 8.72567 16.5372 8.69968C16.564 8.67374 16.5907 8.64781 16.6183 8.62109C16.6713 8.56951 16.7241 8.51784 16.7769 8.46606C16.812 8.43196 16.812 8.43196 16.8479 8.39717C16.9157 8.32606 16.9735 8.25157 17.0309 8.17188Z" fill="#34C759"/>
<path d="M18.0075 2.42969C18.2092 2.60111 18.4042 2.77672 18.5934 2.96191C18.6205 2.98749 18.6475 3.01307 18.6754 3.03943C18.7007 3.0643 18.726 3.08918 18.7521 3.11481C18.7751 3.13704 18.7981 3.15928 18.8218 3.18219C18.8669 3.25 18.8669 3.25 18.8601 3.32162C18.8173 3.4339 18.7545 3.49361 18.6692 3.57818C18.6355 3.6118 18.6019 3.64541 18.5673 3.68005C18.5307 3.71598 18.4942 3.75192 18.4565 3.78894C18.4189 3.82635 18.3813 3.86379 18.3437 3.90125C18.2449 3.99963 18.1457 4.09766 18.0465 4.19562C17.9452 4.2957 17.8442 4.39611 17.7433 4.49649C17.5452 4.6933 17.3468 4.88974 17.1481 5.08594C17.0105 5.02115 16.9216 4.94662 16.8142 4.83783C16.7813 4.8046 16.7483 4.77136 16.7143 4.73712C16.6802 4.70238 16.6461 4.66763 16.611 4.63184C16.559 4.57927 16.559 4.57927 16.5059 4.52563C16.4203 4.43914 16.3349 4.35246 16.2497 4.26562C16.3081 4.12931 16.3861 4.04162 16.4909 3.93745C16.5245 3.90383 16.5581 3.87021 16.5927 3.83558C16.6291 3.79964 16.6654 3.76371 16.7029 3.72668C16.7404 3.68927 16.778 3.65183 16.8155 3.61438C16.9141 3.51608 17.0129 3.41802 17.1118 3.32001C17.2127 3.21986 17.3135 3.11949 17.4142 3.01913C17.6118 2.82243 17.8095 2.62598 18.0075 2.42969Z" fill="#34C759"/>
<path d="M17.4606 6.02344C18.2985 6.02344 19.1364 6.02344 19.9997 6.02344C19.9997 6.42305 19.9997 6.82266 19.9997 7.23438C19.1618 7.23438 18.3239 7.23438 17.4606 7.23438C17.4606 6.83477 17.4606 6.43516 17.4606 6.02344Z" fill="#34C759"/>
</svg>
