<svg width="19" height="19" viewBox="0 0 19 19" fill="none" xmlns="http://www.w3.org/2000/svg">
<path d="M6.53425 6.11666L1.21759 6.8875L1.12342 6.90666C0.980871 6.94451 0.850917 7.0195 0.746832 7.124C0.642746 7.22849 0.568258 7.35874 0.530973 7.50143C0.493689 7.64413 0.494944 7.79417 0.534611 7.93622C0.574278 8.07828 0.650935 8.20726 0.756755 8.31L4.60842 12.0592L3.70009 17.355L3.68925 17.4467C3.68053 17.5941 3.71114 17.7412 3.77796 17.8729C3.84478 18.0046 3.94541 18.1162 4.06953 18.1963C4.19366 18.2763 4.33683 18.3219 4.48438 18.3284C4.63193 18.3349 4.77856 18.3021 4.90925 18.2333L9.66425 15.7333L14.4084 18.2333L14.4918 18.2717C14.6293 18.3258 14.7788 18.3425 14.9249 18.3198C15.071 18.2971 15.2084 18.236 15.3231 18.1427C15.4378 18.0494 15.5255 17.9273 15.5774 17.7889C15.6293 17.6504 15.6435 17.5007 15.6184 17.355L14.7093 12.0592L18.5626 8.30916L18.6276 8.23833C18.7204 8.12397 18.7813 7.98704 18.804 7.84149C18.8267 7.69594 18.8104 7.54698 18.7568 7.40977C18.7032 7.27257 18.6142 7.15202 18.4988 7.06042C18.3835 6.96883 18.2459 6.90944 18.1001 6.88833L12.7834 6.11666L10.4068 1.3C10.338 1.16044 10.2315 1.04293 10.0994 0.96075C9.96731 0.878575 9.81483 0.835022 9.65925 0.835022C9.50368 0.835022 9.3512 0.878575 9.2191 0.96075C9.08699 1.04293 8.98052 1.16044 8.91175 1.3L6.53425 6.11666Z" fill="#08314E" fill-opacity="0.2"/>
</svg>
