<svg width="20" height="20" viewBox="0 0 20 20" fill="none" xmlns="http://www.w3.org/2000/svg">
<g clip-path="url(#clip0_1222_3623)">
<path d="M15.3517 0.11718C15.3824 0.12494 15.4131 0.132701 15.4447 0.140697C17.0242 0.551502 18.3858 1.53658 19.2182 2.94974C19.7525 3.89243 20.0091 4.88786 20.0099 5.96923C20.0099 6.00001 20.01 6.03078 20.01 6.06249C20.0094 6.51335 19.9939 6.94368 19.883 7.3828C19.8765 7.40958 19.87 7.43636 19.8633 7.46394C19.6695 8.24824 19.3062 8.97922 18.8258 9.62646C18.7976 9.66457 18.7976 9.66457 18.7687 9.70346C18.6325 9.88212 18.4821 10.0396 18.3205 10.1953C18.2882 10.2275 18.256 10.2598 18.2228 10.293C18.1906 10.3252 18.1584 10.3574 18.1252 10.3906C18.1075 10.4101 18.0898 10.4296 18.0716 10.4497C17.1075 11.4811 15.5468 11.9696 14.1797 12.0263C12.6335 12.0705 11.1007 11.5328 9.96826 10.469C9.88234 10.3881 9.88234 10.3881 9.78226 10.3108C8.82971 9.54109 8.17091 8.07267 8.03421 6.88039C7.8574 5.16201 8.23417 3.56639 9.31665 2.20015C10.2962 1.00254 11.7146 0.179854 13.2647 0.00654386C13.9497 -0.0407748 14.6842 -0.055311 15.3517 0.11718ZM12.8127 1.32812C12.7646 1.34141 12.7166 1.3547 12.6671 1.3684C11.907 1.6013 11.2532 2.01167 10.6642 2.53905C10.6357 2.56428 10.6071 2.58951 10.5777 2.6155C10.0513 3.1096 9.66923 3.77925 9.43863 4.458C9.42977 4.48405 9.42092 4.5101 9.4118 4.53694C9.2601 5.01588 9.19783 5.48532 9.20181 5.98632C9.20193 6.01254 9.20205 6.03876 9.20217 6.06577C9.20511 6.50717 9.24378 6.92143 9.37515 7.34374C9.38331 7.3703 9.39148 7.39685 9.39989 7.42421C9.5988 8.04835 9.94433 8.88205 10.508 9.2578C10.5277 9.23217 10.5277 9.23217 10.5478 9.20601C11.1465 8.43267 11.8641 7.86561 12.8561 7.70843C13.0754 7.68291 13.2954 7.66847 13.5158 7.65624C13.3886 7.58849 13.2584 7.54097 13.1227 7.49267C12.4907 7.24992 12.0714 6.84713 11.758 6.24999C11.5006 5.65931 11.4607 4.9505 11.6698 4.3373C11.9487 3.6643 12.3841 3.21136 13.0438 2.90054C13.7056 2.6313 14.3956 2.67678 15.049 2.94219C15.6638 3.22921 16.0914 3.69948 16.3283 4.33593C16.3407 4.3668 16.3532 4.39766 16.366 4.42947C16.5664 5.01586 16.4881 5.74515 16.2303 6.29821C15.8999 6.90363 15.3734 7.36723 14.7084 7.5682C14.6368 7.58647 14.5646 7.60217 14.4923 7.61718C14.4923 7.63007 14.4923 7.64296 14.4923 7.65624C14.5654 7.6613 14.5654 7.6613 14.6399 7.66647C15.5967 7.74147 16.4835 8.04071 17.1339 8.78341C17.2618 8.93736 17.3823 9.09609 17.5002 9.2578C17.6562 9.14351 17.7705 9.01704 17.881 8.85985C17.9061 8.82419 17.9061 8.82419 17.9317 8.7878C18.2003 8.39664 18.417 7.98388 18.5695 7.53417C18.5783 7.50813 18.5872 7.48208 18.5963 7.45525C18.748 6.97632 18.8103 6.50685 18.8063 6.00585C18.8062 5.97963 18.8061 5.95341 18.8059 5.9264C18.803 5.48512 18.7646 5.07057 18.633 4.64843C18.6246 4.62146 18.6162 4.59449 18.6076 4.5667C18.2033 3.31099 17.3051 2.2804 16.1362 1.68029C15.1345 1.18366 13.8957 1.02633 12.8127 1.32812ZM12.9689 4.41405C12.733 4.75349 12.7039 5.05937 12.7345 5.46874C12.8002 5.77111 12.9687 6.01236 13.2033 6.21093C13.5282 6.41152 13.8467 6.54192 14.2328 6.46636C14.5955 6.37076 14.9092 6.17633 15.1173 5.85937C15.3046 5.53449 15.3324 5.17461 15.2478 4.81109C15.1132 4.43247 14.8402 4.17387 14.4923 3.98437C13.9176 3.75023 13.3628 3.96982 12.9689 4.41405ZM11.7374 9.60784C11.618 9.75449 11.5321 9.91065 11.4455 10.0781C12.19 10.4927 12.9256 10.7786 13.7892 10.8203C13.8217 10.8219 13.8543 10.8235 13.8878 10.8252C14.8574 10.8485 15.7317 10.5587 16.5627 10.0781C16.3283 9.55369 15.8824 9.19178 15.3579 8.97825C14.9494 8.84503 14.5527 8.84333 14.1264 8.84681C14.0043 8.84765 13.8822 8.84681 13.7601 8.84582C12.943 8.84464 12.33 9.01614 11.7374 9.60784Z" fill="#34C759"/>
<path d="M4.25796 6.21093C4.39019 6.33242 4.51743 6.45851 4.64432 6.58554C4.6975 6.63847 4.6975 6.63847 4.75175 6.69247C4.8262 6.76663 4.9005 6.84094 4.97471 6.91535C5.06915 7.01001 5.16403 7.10423 5.25903 7.19833C5.35062 7.2892 5.44178 7.38051 5.53299 7.47177C5.56676 7.50518 5.60054 7.5386 5.63534 7.57303C6.01943 7.96006 6.22062 8.31284 6.22818 8.8623C6.22468 9.32461 6.09616 9.65786 5.7814 10C5.71414 10.0654 5.64658 10.1305 5.57876 10.1953C5.32873 10.4396 5.19963 10.7046 5.19333 11.057C5.25262 12.172 6.01241 13.1034 6.80656 13.8276C7.40313 14.3523 8.24286 14.8459 9.06265 14.8047C9.44044 14.7397 9.67735 14.5471 9.93667 14.2773C10.2433 13.9638 10.5893 13.7843 11.0317 13.7722C11.7043 13.7704 12.1084 14.0552 12.5769 14.518C12.6085 14.5497 12.6401 14.5813 12.6727 14.6139C12.7064 14.6474 12.74 14.6809 12.7746 14.7153C12.8452 14.7857 12.9157 14.8561 12.9861 14.9267C13.0932 15.0339 13.2008 15.1407 13.3085 15.2473C13.3774 15.3161 13.4462 15.3849 13.515 15.4538C13.5469 15.4853 13.5787 15.5168 13.6116 15.5493C14.0061 15.947 14.2277 16.3057 14.236 16.8701C14.2314 17.5769 13.8452 17.9664 13.3712 18.4403C13.2992 18.5125 13.2278 18.5852 13.1565 18.6581C12.7871 19.031 12.3977 19.3498 11.9215 19.5801C11.8828 19.599 11.8828 19.599 11.8434 19.6184C11.2306 19.9092 10.6025 20.0156 9.92691 20.0146C9.90049 20.0146 9.87408 20.0146 9.84687 20.0145C8.75641 20.0099 7.73121 19.6986 6.75796 19.2187C6.72485 19.2026 6.69174 19.1865 6.65762 19.1699C5.77152 18.7356 4.97481 18.1705 4.2189 17.5391C4.17988 17.5073 4.14085 17.4756 4.10065 17.4429C3.79472 17.1909 3.51095 16.9176 3.23013 16.6382C3.17629 16.5849 3.17629 16.5849 3.12136 16.5305C2.91353 16.3217 2.72135 16.1062 2.53726 15.8762C2.47698 15.8011 2.41582 15.7278 2.35199 15.6557C1.29289 14.4514 0.50705 12.9591 0.117338 11.4062C0.110332 11.3799 0.103327 11.3536 0.096109 11.3264C-0.00911411 10.9203 -0.0118171 10.5097 -0.0144982 10.0928C-0.0148121 10.0655 -0.015126 10.0383 -0.0154495 10.0103C-0.0259183 8.8123 0.432261 7.77777 1.2622 6.92276C1.34082 6.84298 1.41982 6.76362 1.49915 6.68456C1.58003 6.60371 1.66004 6.52207 1.74003 6.44035C2.48818 5.68534 3.39225 5.48911 4.25796 6.21093ZM2.41374 7.49166C2.35226 7.55268 2.29009 7.61293 2.22786 7.67318C1.57356 8.31713 1.18355 9.10414 1.17113 10.0341C1.19241 12.0057 2.35381 13.853 3.63296 15.2734C3.6526 15.2953 3.67224 15.3171 3.69247 15.3396C4.04382 15.7286 4.40483 16.1058 4.80484 16.4453C4.84034 16.4765 4.87584 16.5076 4.91241 16.5398C5.98738 17.4773 7.25386 18.2473 8.63296 18.6328C8.66301 18.6415 8.69305 18.6501 8.724 18.659C9.5987 18.9032 10.558 18.8842 11.382 18.4888C11.4175 18.4718 11.4175 18.4718 11.4537 18.4544C11.86 18.2425 12.1879 17.9026 12.507 17.5793C12.5647 17.5208 12.6228 17.4627 12.681 17.4046C12.9166 17.1852 12.9166 17.1852 13.0332 16.8955C13.0287 16.6373 12.8154 16.4817 12.643 16.3123C12.6051 16.2742 12.5674 16.2361 12.5296 16.198C12.4505 16.1184 12.3709 16.0394 12.2908 15.9608C12.1885 15.8603 12.0877 15.7584 11.9872 15.6561C11.9094 15.5772 11.831 15.4991 11.7523 15.4213C11.6967 15.3659 11.6417 15.31 11.5867 15.254C11.3834 15.045 11.3834 15.045 11.1129 14.9742C10.9756 15.0002 10.9215 15.017 10.8253 15.1147C10.7864 15.1521 10.7864 15.1521 10.7466 15.1903C10.7194 15.2177 10.6922 15.2452 10.6642 15.2734C10.1138 15.821 9.5141 16.0165 8.75015 16.0156C7.59494 15.9589 6.52256 15.2562 5.72014 14.4688C5.66732 14.4171 5.61361 14.3663 5.55984 14.3156C4.69622 13.4855 4.00618 12.2953 3.97232 11.0791C3.9884 10.3297 4.28654 9.77207 4.80987 9.25354C4.97001 9.08697 4.97001 9.08697 5.03921 8.87207C5.01973 8.7203 4.95282 8.64466 4.85016 8.53408C4.81834 8.4998 4.78652 8.46553 4.75374 8.43021C4.58966 8.25872 4.42356 8.08947 4.25538 7.92201C4.19671 7.86355 4.13826 7.80488 4.07982 7.7462C3.89162 7.55789 3.70174 7.37381 3.49841 7.20177C3.43765 7.14843 3.43765 7.14843 3.35464 7.05566C3.00762 6.75491 2.65015 7.25608 2.41374 7.49166Z" fill="#34C759"/>
</g>
<defs>
<clipPath id="clip0_1222_3623">
<rect width="20" height="20" fill="white"/>
</clipPath>
</defs>
</svg>
