<svg width="20" height="20" viewBox="0 0 20 20" fill="none" xmlns="http://www.w3.org/2000/svg">
<g clip-path="url(#clip0_1222_3605)">
<path d="M18.3479 0.752146C19.2319 1.4353 19.8402 2.40071 19.9998 3.51563C20.0345 4.13572 20.0431 4.75822 19.8436 5.35156C19.8299 5.39467 19.8162 5.43777 19.8021 5.48218C19.718 5.72269 19.6081 5.94816 19.4871 6.17188C19.4747 6.19547 19.4623 6.21906 19.4496 6.24337C19.1537 6.76859 18.6745 7.1969 18.2519 7.61902C18.1932 7.67787 18.1345 7.73674 18.0758 7.7956C17.9536 7.91812 17.8313 8.04048 17.7088 8.16275C17.5529 8.31838 17.3975 8.47446 17.2422 8.63066C17.1214 8.75205 17.0003 8.87317 16.8791 8.99421C16.8218 9.05161 16.7645 9.1091 16.7073 9.16669C15.7743 10.1054 14.7566 10.7033 13.4056 10.7202C12.585 10.7156 11.8644 10.4886 11.1688 10.0601C11.053 9.98788 11.053 9.98788 10.8983 10C10.8185 10.0661 10.7493 10.1308 10.6779 10.2051C10.6573 10.2259 10.6367 10.2467 10.6155 10.2681C10.5499 10.3347 10.4848 10.4017 10.4197 10.4688C10.3753 10.514 10.3309 10.5591 10.2864 10.6042C10.1774 10.7149 10.069 10.8261 9.96076 10.9375C10.0125 11.0707 10.0689 11.186 10.1463 11.3062C10.6898 12.2036 10.8514 13.3192 10.6265 14.3422C10.3152 15.4883 9.61551 16.2488 8.79666 17.0718C8.76973 17.0989 8.74279 17.126 8.71504 17.1539C8.57269 17.2971 8.43021 17.4401 8.28764 17.5831C8.14194 17.7292 7.99671 17.8758 7.85157 18.0225C7.73838 18.1367 7.62485 18.2506 7.51122 18.3643C7.45757 18.4182 7.40404 18.4721 7.35067 18.5262C6.49638 19.3915 5.50404 19.9988 4.25728 20.0149C3.02035 20.013 1.99394 19.6324 1.10455 18.7634C0.263851 17.8812 -0.0261769 16.7993 -0.0111685 15.6073C-0.00278847 15.2682 0.0480051 14.9687 0.156068 14.6484C0.177972 14.5817 0.177972 14.5817 0.200318 14.5137C0.503657 13.665 1.05964 13.0623 1.68668 12.4382C1.74714 12.3777 1.80758 12.3171 1.86801 12.2565C1.99385 12.1305 2.11991 12.0047 2.24611 11.8791C2.40677 11.7191 2.5669 11.5585 2.72687 11.3979C2.8513 11.273 2.976 11.1485 3.10079 11.024C3.15991 10.9649 3.21894 10.9058 3.27789 10.8466C4.20876 9.91232 5.21875 9.29592 6.57208 9.27979C7.42184 9.28427 8.30366 9.50872 8.98419 10.0391C9.13687 9.97718 9.23902 9.87241 9.35224 9.75678C9.37196 9.73695 9.39168 9.71711 9.41199 9.69668C9.47466 9.63358 9.53705 9.57022 9.59943 9.50684C9.64198 9.46389 9.68455 9.42096 9.72714 9.37805C9.83126 9.27307 9.93514 9.16785 10.0389 9.0625C9.9769 8.90176 9.90054 8.76119 9.81183 8.61328C9.27547 7.68712 9.14884 6.57975 9.39847 5.54154C9.66941 4.53893 10.2956 3.83245 11.0122 3.11508C11.0726 3.05446 11.133 2.99383 11.1933 2.93319C11.3194 2.80669 11.4456 2.68035 11.5719 2.5541C11.7324 2.39354 11.8925 2.23245 12.0523 2.07122C12.1767 1.94597 12.3014 1.82109 12.4263 1.69631C12.4854 1.63712 12.5443 1.57781 12.6032 1.51836C14.1397 -0.0326498 16.4607 -0.631283 18.3479 0.752146ZM13.0842 2.76703C13.0587 2.79246 13.0331 2.81789 13.0068 2.84409C12.8719 2.97847 12.737 3.11295 12.6023 3.24753C12.4642 3.38538 12.3258 3.52286 12.1873 3.66026C12.0797 3.76711 11.9724 3.87421 11.8652 3.9814C11.8143 4.03216 11.7633 4.08284 11.7122 4.1334C11.0554 4.784 10.5163 5.51356 10.4982 6.47893C10.4958 7.07336 10.6203 7.61542 10.9373 8.125C11.1051 8.06059 11.2156 7.93379 11.3383 7.8079C11.3746 7.77121 11.3746 7.77121 11.4115 7.73378C11.4639 7.68075 11.5161 7.62763 11.5683 7.57443C11.6508 7.49036 11.7337 7.40659 11.8166 7.3229C12.0522 7.08496 12.2875 6.84664 12.5223 6.60775C12.6659 6.46162 12.81 6.31595 12.9544 6.17058C13.0094 6.11502 13.0642 6.05928 13.1188 6.00335C13.1951 5.92535 13.2719 5.84796 13.3488 5.77069C13.3714 5.7473 13.394 5.72391 13.4172 5.6998C13.4809 5.63656 13.4809 5.63656 13.5936 5.54688C13.82 5.57453 13.9606 5.77671 14.1136 5.93018C14.1467 5.96223 14.1799 5.99428 14.2141 6.0273C14.2608 6.07386 14.2608 6.07386 14.3084 6.12137C14.3371 6.14976 14.3658 6.17815 14.3953 6.2074C14.4529 6.28906 14.4529 6.28906 14.4433 6.36509C14.3926 6.50322 14.2795 6.59488 14.1764 6.69613C14.1392 6.73331 14.1392 6.73331 14.1013 6.77125C14.0194 6.85311 13.937 6.93455 13.8546 7.01599C13.7978 7.07267 13.7409 7.12937 13.684 7.1861C13.5343 7.33535 13.3843 7.48424 13.2342 7.63306C13.0811 7.78497 12.9283 7.93723 12.7755 8.08945C12.4756 8.38808 12.1753 8.68635 11.8748 8.98438C11.9022 9.10973 11.9022 9.10973 12.015 9.16016C12.8117 9.5171 13.5998 9.61817 14.4371 9.32602C15.1805 9.02946 15.7231 8.4236 16.2796 7.86881C16.3041 7.84436 16.3287 7.81991 16.354 7.79472C16.4837 7.66562 16.6132 7.53641 16.7427 7.4071C16.8751 7.27495 17.0078 7.14317 17.1406 7.01147C17.2441 6.90875 17.3473 6.80576 17.4504 6.70269C17.4992 6.65403 17.548 6.60546 17.597 6.557C18.308 5.85302 18.7946 5.1375 18.8035 4.10156C18.7968 3.3957 18.5857 2.76897 18.1248 2.22656C18.0958 2.18789 18.0668 2.14922 18.0369 2.10938C17.6325 1.64026 16.9735 1.31528 16.367 1.21094C14.8883 1.1186 14.0822 1.77204 13.0842 2.76703ZM3.78873 12.0625C3.76324 12.0879 3.73775 12.1133 3.71148 12.1394C3.57673 12.2736 3.44209 12.4079 3.30755 12.5423C3.16984 12.6798 3.03177 12.8169 2.89362 12.9539C2.78621 13.0606 2.67907 13.1676 2.57199 13.2746C2.52125 13.3252 2.47041 13.3757 2.41946 13.4261C1.71029 14.1286 1.20461 14.842 1.19611 15.8765C1.20253 16.5899 1.40532 17.2255 1.87482 17.7734C1.90458 17.8109 1.93434 17.8483 1.965 17.8868C2.37322 18.375 3.04425 18.717 3.67169 18.7891C4.58737 18.8476 5.35688 18.6646 6.05708 18.0547C6.34654 17.7972 6.62129 17.5263 6.89557 17.2528C6.92015 17.2283 6.94473 17.2039 6.97006 17.1787C7.10004 17.0493 7.22991 16.9197 7.35969 16.7901C7.49231 16.6577 7.6253 16.5257 7.75837 16.3937C7.86199 16.2908 7.96535 16.1877 8.06864 16.0844C8.1175 16.0357 8.16645 15.9871 8.21551 15.9385C8.89523 15.2655 9.48266 14.5242 9.50144 13.5211C9.50381 12.9266 9.37931 12.3846 9.06232 11.875C8.89458 11.9394 8.78402 12.0662 8.66132 12.1921C8.63716 12.2166 8.61301 12.241 8.58812 12.2662C8.53577 12.3193 8.48352 12.3724 8.43133 12.4256C8.3488 12.5096 8.26598 12.5934 8.18307 12.6771C7.94739 12.915 7.7121 13.1534 7.47739 13.3923C7.33376 13.5384 7.18967 13.6841 7.04526 13.8294C6.99026 13.885 6.93544 13.9407 6.8808 13.9967C6.80458 14.0747 6.72778 14.152 6.65082 14.2293C6.62825 14.2527 6.60568 14.2761 6.58243 14.3002C6.51872 14.3634 6.51872 14.3634 6.40607 14.4531C6.17964 14.4255 6.03904 14.2233 5.88605 14.0698C5.85289 14.0378 5.81973 14.0057 5.78557 13.9727C5.73885 13.9261 5.73885 13.9261 5.69119 13.8786C5.66253 13.8502 5.63386 13.8219 5.60432 13.7926C5.54669 13.7109 5.54669 13.7109 5.5563 13.6349C5.60701 13.4968 5.72018 13.4051 5.82327 13.3039C5.84804 13.2791 5.87281 13.2543 5.89833 13.2288C5.98028 13.1469 6.06263 13.0655 6.14499 12.984C6.20189 12.9273 6.25876 12.8706 6.3156 12.8139C6.4653 12.6647 6.61534 12.5158 6.76545 12.3669C6.91857 12.215 7.07135 12.0628 7.22417 11.9106C7.52406 11.6119 7.82432 11.3137 8.12482 11.0156C8.09754 10.892 8.09754 10.892 7.99283 10.8412C6.28714 10.0522 5.01448 10.8404 3.78873 12.0625Z" fill="#34C759"/>
</g>
<defs>
<clipPath id="clip0_1222_3605">
<rect width="20" height="20" fill="white"/>
</clipPath>
</defs>
</svg>
