<svg width="34" height="34" viewBox="0 0 34 34" fill="none" xmlns="http://www.w3.org/2000/svg">
<path d="M7.28 28.415C7.69252 27.042 8.53661 25.8386 9.68708 24.9833C10.8375 24.128 12.2331 23.6662 13.6667 23.6667H20.3333C21.7688 23.6662 23.166 24.129 24.3173 24.9863C25.4686 25.8436 26.3124 27.0496 26.7233 28.425M2 17C2 18.9698 2.38799 20.9204 3.14181 22.7403C3.89563 24.5601 5.00052 26.2137 6.3934 27.6066C7.78628 28.9995 9.43987 30.1044 11.2597 30.8582C13.0796 31.612 15.0302 32 17 32C18.9698 32 20.9204 31.612 22.7403 30.8582C24.5601 30.1044 26.2137 28.9995 27.6066 27.6066C28.9995 26.2137 30.1044 24.5601 30.8582 22.7403C31.612 20.9204 32 18.9698 32 17C32 15.0302 31.612 13.0796 30.8582 11.2597C30.1044 9.43987 28.9995 7.78628 27.6066 6.3934C26.2137 5.00052 24.5601 3.89563 22.7403 3.14181C20.9204 2.38799 18.9698 2 17 2C15.0302 2 13.0796 2.38799 11.2597 3.14181C9.43987 3.89563 7.78628 5.00052 6.3934 6.3934C5.00052 7.78628 3.89563 9.43987 3.14181 11.2597C2.38799 13.0796 2 15.0302 2 17ZM12 13.6667C12 14.9927 12.5268 16.2645 13.4645 17.2022C14.4021 18.1399 15.6739 18.6667 17 18.6667C18.3261 18.6667 19.5979 18.1399 20.5355 17.2022C21.4732 16.2645 22 14.9927 22 13.6667C22 12.3406 21.4732 11.0688 20.5355 10.1311C19.5979 9.19345 18.3261 8.66667 17 8.66667C15.6739 8.66667 14.4021 9.19345 13.4645 10.1311C12.5268 11.0688 12 12.3406 12 13.6667Z" stroke="#08314E" stroke-opacity="0.8" stroke-width="2.5" stroke-linecap="round" stroke-linejoin="round"/>
</svg>
