<svg width="20" height="20" viewBox="0 0 20 20" fill="none" xmlns="http://www.w3.org/2000/svg">
<g clip-path="url(#clip0_262_142)">
<path d="M15.8332 4.16663L11.3332 8.66663M15.8332 4.16663H11.6665M15.8332 4.16663V8.33329M4.1665 11.6666C4.1665 12.7717 4.60549 13.8315 5.38689 14.6129C6.16829 15.3943 7.2281 15.8333 8.33317 15.8333C9.43824 15.8333 10.498 15.3943 11.2794 14.6129C12.0609 13.8315 12.4998 12.7717 12.4998 11.6666C12.4998 10.5616 12.0609 9.50175 11.2794 8.72035C10.498 7.93895 9.43824 7.49996 8.33317 7.49996C7.2281 7.49996 6.16829 7.93895 5.38689 8.72035C4.60549 9.50175 4.1665 10.5616 4.1665 11.6666Z" stroke="#08314E" stroke-width="1.25" stroke-linecap="round" stroke-linejoin="round"/>
</g>
<defs>
<clipPath id="clip0_262_142">
<rect width="20" height="20" fill="white"/>
</clipPath>
</defs>
</svg>
