<svg width="20" height="20" viewBox="0 0 20 20" fill="none" xmlns="http://www.w3.org/2000/svg">
<g clip-path="url(#clip0_1_594)">
<path d="M2.5 5.83341C2.5 5.39139 2.67559 4.96746 2.98816 4.6549C3.30072 4.34234 3.72464 4.16675 4.16667 4.16675H15.8333C16.2754 4.16675 16.6993 4.34234 17.0118 4.6549C17.3244 4.96746 17.5 5.39139 17.5 5.83341M2.5 5.83341V14.1667C2.5 14.6088 2.67559 15.0327 2.98816 15.3453C3.30072 15.6578 3.72464 15.8334 4.16667 15.8334H15.8333C16.2754 15.8334 16.6993 15.6578 17.0118 15.3453C17.3244 15.0327 17.5 14.6088 17.5 14.1667V5.83341M2.5 5.83341L10 10.8334L17.5 5.83341" stroke="white" stroke-width="1.25" stroke-linecap="round" stroke-linejoin="round"/>
</g>
<defs>
<clipPath id="clip0_1_594">
<rect width="20" height="20" fill="white"/>
</clipPath>
</defs>
</svg>
