<svg width="14" height="17" viewBox="0 0 14 17" fill="none" xmlns="http://www.w3.org/2000/svg">
<path d="M1.1665 7.26904C1.1665 11.3122 4.70357 14.6558 6.26916 15.9377C6.49322 16.1211 6.6066 16.214 6.77376 16.261C6.90393 16.2977 7.0955 16.2977 7.22567 16.261C7.39314 16.2139 7.50573 16.122 7.73063 15.9378C9.29623 14.6559 12.8331 11.3126 12.8331 7.26941C12.8331 5.73932 12.2186 4.27171 11.1246 3.18977C10.0306 2.10783 8.547 1.5 6.9999 1.5C5.45281 1.5 3.96901 2.10792 2.87505 3.18986C1.78109 4.2718 1.1665 5.73895 1.1665 7.26904Z" stroke="white" stroke-width="1.25" stroke-linecap="round" stroke-linejoin="round"/>
<path d="M5.33317 6.5C5.33317 7.42047 6.07936 8.16667 6.99984 8.16667C7.92031 8.16667 8.6665 7.42047 8.6665 6.5C8.6665 5.57953 7.92031 4.83333 6.99984 4.83333C6.07936 4.83333 5.33317 5.57953 5.33317 6.5Z" stroke="white" stroke-width="1.25" stroke-linecap="round" stroke-linejoin="round"/>
</svg>
