<svg width="42" height="43" viewBox="0 0 42 43" fill="none" xmlns="http://www.w3.org/2000/svg">
<path d="M31.4167 3.15244C34.559 4.96672 37.1729 7.5702 38.9997 10.7051C40.8265 13.8401 41.8029 17.3978 41.8322 21.0261C41.8615 24.6543 40.9427 28.2273 39.1668 31.3914C37.3908 34.5554 34.8193 37.2008 31.7068 39.0656C28.5943 40.9304 25.0488 41.95 21.4211 42.0234C17.7935 42.0968 14.2096 41.2215 11.0242 39.4842C7.83875 37.7469 5.16231 35.2077 3.2598 32.1181C1.35729 29.0285 0.294684 25.4956 0.177165 21.8691L0.166748 21.1941L0.177165 20.5191C0.293838 16.9212 1.34081 13.4149 3.216 10.342C5.09119 7.26915 7.73061 4.73463 10.8769 2.98552C14.0233 1.23642 17.5691 0.332428 21.1688 0.36168C24.7686 0.390933 28.2993 1.35243 31.4167 3.15244ZM28.723 15.5545C28.3643 15.1958 27.887 14.9803 27.3807 14.9485C26.8744 14.9167 26.3738 15.0707 25.973 15.3816L25.7772 15.5545L18.9167 22.4129L16.223 19.7212L16.0272 19.5483C15.6263 19.2376 15.1259 19.0837 14.6197 19.1157C14.1135 19.1476 13.6363 19.3631 13.2777 19.7217C12.9191 20.0804 12.7036 20.5575 12.6717 21.0637C12.6397 21.5699 12.7935 22.0703 13.1042 22.4712L13.2772 22.667L17.4438 26.8337L17.6397 27.0066C18.005 27.2901 18.4543 27.4439 18.9167 27.4439C19.3792 27.4439 19.8285 27.2901 20.1938 27.0066L20.3897 26.8337L28.723 18.5004L28.8959 18.3045C29.2069 17.9037 29.3609 17.4032 29.329 16.8969C29.2972 16.3905 29.0817 15.9133 28.723 15.5545Z" fill="#34C759"/>
</svg>
