<svg width="20" height="20" viewBox="0 0 20 20" fill="none" xmlns="http://www.w3.org/2000/svg">
<g clip-path="url(#clip0_1222_3599)">
<path d="M0 1.21094C6.6 1.21094 13.2 1.21094 20 1.21094C20 7.01172 20 12.8125 20 18.7891C13.4 18.7891 6.8 18.7891 0 18.7891C0 12.9883 0 7.1875 0 1.21094ZM1.17188 2.38281C1.17188 3.54297 1.17188 4.70312 1.17188 5.89844C5.05195 5.89844 8.93203 5.89844 12.9297 5.89844C12.9297 4.73828 12.9297 3.57812 12.9297 2.38281C9.04961 2.38281 5.16953 2.38281 1.17188 2.38281ZM14.1016 2.38281C14.1016 3.54297 14.1016 4.70312 14.1016 5.89844C15.6613 5.89844 17.2211 5.89844 18.8281 5.89844C18.8281 4.73828 18.8281 3.57812 18.8281 2.38281C17.2684 2.38281 15.7086 2.38281 14.1016 2.38281ZM1.17188 7.07031C1.17188 10.5508 1.17188 14.0312 1.17188 17.6172C6.99844 17.6172 12.825 17.6172 18.8281 17.6172C18.8281 14.1367 18.8281 10.6562 18.8281 7.07031C13.0016 7.07031 7.175 7.07031 1.17188 7.07031Z" fill="#34C759"/>
<path d="M8.24219 8.90625C8.37907 8.961 8.47024 8.99984 8.58659 9.07926C8.61472 9.09832 8.64286 9.11738 8.67185 9.13702C8.71725 9.16819 8.71725 9.16819 8.76358 9.19998C8.81205 9.23289 8.81205 9.23289 8.8615 9.26647C8.93162 9.31409 9.00169 9.36179 9.07172 9.40956C9.26153 9.53901 9.45177 9.66782 9.64203 9.7966C9.68139 9.82325 9.72076 9.84991 9.76131 9.87737C10.1665 10.1513 10.575 10.4202 10.9839 10.6885C11.7936 11.2201 12.597 11.7607 13.3984 12.3047C13.3546 12.4363 13.3353 12.449 13.2238 12.5212C13.1948 12.5403 13.1657 12.5593 13.1358 12.5789C13.0877 12.6098 13.0877 12.6098 13.0386 12.6413C12.9884 12.6741 12.9884 12.6741 12.9371 12.7076C12.8642 12.7552 12.7911 12.8027 12.718 12.85C12.5206 12.9779 12.3239 13.1068 12.1271 13.2356C12.0865 13.2622 12.0459 13.2887 12.004 13.3161C11.5987 13.5813 11.197 13.8519 10.7959 14.1235C10.6583 14.2165 10.5207 14.3095 10.3831 14.4025C10.349 14.4255 10.3149 14.4486 10.2798 14.4723C9.90412 14.726 9.52795 14.979 9.15118 15.2311C9.0778 15.2802 9.00446 15.3294 8.93118 15.3787C8.83016 15.4466 8.72899 15.5142 8.62778 15.5818C8.59763 15.6021 8.56748 15.6225 8.53643 15.6434C8.49519 15.6708 8.49519 15.6708 8.45313 15.6988C8.42922 15.7148 8.40532 15.7309 8.38069 15.7473C8.32031 15.7812 8.32031 15.7812 8.24219 15.7812C8.24219 13.5125 8.24219 11.2438 8.24219 8.90625ZM9.41406 11.1328C9.41406 11.932 9.41406 12.7313 9.41406 13.5547C9.68232 13.4082 9.68232 13.4082 9.93821 13.2476C9.98158 13.2183 9.98158 13.2183 10.0258 13.1884C10.0556 13.168 10.0854 13.1476 10.1161 13.1267C10.1635 13.0946 10.1635 13.0946 10.2118 13.0618C10.3114 12.9943 10.4108 12.9266 10.5103 12.8589C10.5783 12.8127 10.6463 12.7666 10.7143 12.7204C10.88 12.608 11.0455 12.4955 11.2109 12.3828C11.1645 12.2434 11.1304 12.227 11.0103 12.1483C10.976 12.1257 10.9417 12.103 10.9064 12.0796C10.8691 12.0555 10.8319 12.0313 10.7935 12.0064C10.7555 11.9814 10.7175 11.9564 10.6783 11.9307C10.5979 11.8779 10.5174 11.8253 10.4367 11.7728C10.3128 11.6921 10.1892 11.611 10.0656 11.5298C9.98761 11.4787 9.90958 11.4276 9.83154 11.3765C9.79427 11.3521 9.757 11.3277 9.7186 11.3025C9.66718 11.2691 9.66718 11.2691 9.61472 11.2349C9.58439 11.2152 9.55406 11.1954 9.52281 11.175C9.46114 11.1294 9.46114 11.1294 9.41406 11.1328Z" fill="#34C759"/>
<path d="M9.41406 3.55469C10.1875 3.55469 10.9609 3.55469 11.7578 3.55469C11.7578 3.94141 11.7578 4.32812 11.7578 4.72656C10.9844 4.72656 10.2109 4.72656 9.41406 4.72656C9.41406 4.33984 9.41406 3.95312 9.41406 3.55469Z" fill="#34C759"/>
<path d="M5.89844 3.55469C6.67188 3.55469 7.44531 3.55469 8.24219 3.55469C8.24219 3.94141 8.24219 4.32812 8.24219 4.72656C7.46875 4.72656 6.69531 4.72656 5.89844 4.72656C5.89844 4.33984 5.89844 3.95312 5.89844 3.55469Z" fill="#34C759"/>
<path d="M2.38281 3.55469C3.15625 3.55469 3.92969 3.55469 4.72656 3.55469C4.72656 3.94141 4.72656 4.32812 4.72656 4.72656C3.95312 4.72656 3.17969 4.72656 2.38281 4.72656C2.38281 4.33984 2.38281 3.95312 2.38281 3.55469Z" fill="#34C759"/>
</g>
<defs>
<clipPath id="clip0_1222_3599">
<rect width="20" height="20" fill="white"/>
</clipPath>
</defs>
</svg>
