<svg width="24" height="24" viewBox="0 0 24 24" fill="none" xmlns="http://www.w3.org/2000/svg">
<g clip-path="url(#clip0_243_13289)">
<path d="M12.0003 20.0001L4.5003 12.5721C4.00561 12.0907 3.61594 11.5121 3.35585 10.8727C3.09575 10.2333 2.97086 9.54701 2.98904 8.85699C3.00721 8.16697 3.16806 7.48819 3.46146 6.86339C3.75485 6.23859 4.17444 5.68131 4.69379 5.22663C5.21314 4.77196 5.82101 4.42974 6.47911 4.22154C7.13722 4.01333 7.83131 3.94364 8.51767 4.01686C9.20403 4.09007 9.8678 4.30461 10.4672 4.64696C11.0666 4.98931 11.5885 5.45205 12.0003 6.00605C12.803 4.95049 13.9921 4.25703 15.3061 4.07821C16.62 3.89939 17.9512 4.24988 19.0068 5.05255C20.0624 5.85523 20.7558 7.04435 20.9346 8.35833C21.1135 9.6723 20.763 11.0035 19.9603 12.0591M16.0003 19.0001H22.0003M19.0003 16.0001V22.0001" stroke="#08314E" stroke-width="1.5" stroke-linecap="round" stroke-linejoin="round"/>
</g>
<defs>
<clipPath id="clip0_243_13289">
<rect width="24" height="24" fill="white"/>
</clipPath>
</defs>
</svg>
