<svg width="20" height="20" viewBox="0 0 20 20" fill="none" xmlns="http://www.w3.org/2000/svg">
<g clip-path="url(#clip0_1222_3593)">
<path d="M12.55 9.14237C13.2391 9.72234 13.6221 10.411 13.9256 11.2427C14.0919 11.6779 14.3304 11.9711 14.6873 12.2656C15.506 12.9541 15.9799 13.8551 16.1229 14.9121C16.1271 14.9674 16.1303 15.0227 16.1327 15.0781C16.1347 15.1136 16.1367 15.1492 16.1388 15.1858C16.1713 16.268 15.7777 17.2372 15.078 18.0469C15.0523 18.0765 15.0267 18.1062 15.0003 18.1367C14.5003 18.671 13.7912 19.0462 13.0858 19.2187C13.0349 19.2319 13.0349 19.2319 12.9831 19.2453C12.2037 19.4109 11.3864 19.301 10.6405 19.0513C10.2753 18.9291 9.95837 18.9147 9.58724 19.0136C9.56064 19.0206 9.53403 19.0276 9.50662 19.0348C9.42352 19.0566 9.34058 19.079 9.25765 19.1015C9.1772 19.1232 9.09675 19.1449 9.01627 19.1665C8.94439 19.1859 8.87259 19.2056 8.80081 19.2253C8.19058 19.3789 7.47861 19.3505 6.87484 19.1797C6.83516 19.1688 6.79548 19.1579 6.7546 19.1467C5.74919 18.8414 4.90298 18.13 4.4017 17.2119C3.90129 16.2562 3.81473 15.1543 4.1307 14.125C4.40917 13.3227 4.86353 12.6852 5.51742 12.1435C5.87018 11.8487 6.05291 11.5628 6.19888 11.1244C6.56001 10.0497 7.26103 9.17916 8.27937 8.67095C9.66683 8.00772 11.3437 8.17077 12.55 9.14237ZM7.95028 10.4313C7.66573 10.7638 7.50915 11.1124 7.3659 11.5195C7.12597 12.199 6.75155 12.7866 6.15707 13.2104C5.59008 13.6404 5.28064 14.315 5.17684 15.0044C5.09554 15.7611 5.32257 16.48 5.77346 17.0871C6.24544 17.653 6.93245 18.0196 7.66444 18.0948C8.10171 18.125 8.48918 18.0552 8.90609 17.9297C9.53946 17.7442 9.53946 17.7442 9.76547 17.7344C9.80454 17.7323 9.84362 17.7303 9.88387 17.7282C10.3961 17.7144 10.8689 17.8182 11.3513 17.9799C12.034 18.2081 12.7622 18.1058 13.4056 17.81C14.1194 17.4279 14.5968 16.8134 14.8363 16.04C15.0151 15.3064 14.899 14.5504 14.5239 13.898C14.3063 13.5639 14.0492 13.2976 13.7369 13.0522C13.4275 12.8044 13.2031 12.5315 13.0077 12.1875C12.9909 12.1584 12.9742 12.1294 12.957 12.0994C12.841 11.8829 12.7604 11.6565 12.6781 11.4258C12.5119 10.9641 12.298 10.6254 11.953 10.2734C11.927 10.246 11.901 10.2186 11.8742 10.1904C11.3593 9.68726 10.6177 9.4771 9.91348 9.48377C9.14423 9.52739 8.47686 9.87828 7.95028 10.4313Z" fill="#34C759"/>
<path d="M14.5702 1.09373C15.2385 1.60523 15.6201 2.35318 15.7637 3.17014C15.8806 4.17948 15.6933 5.17177 15.0536 5.98142C14.733 6.35135 14.3703 6.60284 13.9061 6.75779C13.8778 6.76736 13.8496 6.77692 13.8205 6.78678C13.2277 6.95102 12.6187 6.81488 12.0897 6.52906C11.4065 6.13095 11.009 5.39699 10.8095 4.65452C10.6568 3.99119 10.6676 3.22124 10.8983 2.5781C10.9202 2.51549 10.9202 2.51549 10.9425 2.45161C11.2088 1.75774 11.6949 1.18474 12.3704 0.864235C13.0915 0.543502 13.9232 0.658366 14.5702 1.09373ZM12.3929 2.34998C12.2499 2.52955 12.1549 2.71713 12.0702 2.92966C12.0569 2.96149 12.0437 2.99331 12.03 3.0261C11.8359 3.59136 11.9082 4.26671 12.1483 4.80466C12.332 5.1461 12.6265 5.49373 13.0093 5.60926C13.3014 5.66931 13.5303 5.61008 13.7889 5.46873C14.2134 5.18021 14.4288 4.74725 14.5444 4.25733C14.6549 3.65689 14.5585 3.04506 14.2458 2.51707C14.0335 2.21192 13.7873 2.03068 13.4373 1.91404C12.9998 1.85945 12.6864 2.03614 12.3929 2.34998Z" fill="#34C759"/>
<path d="M8.2376 1.13157C8.8995 1.64114 9.27643 2.42362 9.39742 3.23789C9.50283 4.16095 9.33757 5.13304 8.75595 5.87797C8.33334 6.37254 7.84857 6.74906 7.18734 6.83591C6.50947 6.87349 5.93342 6.74876 5.40125 6.29847C4.77801 5.74044 4.41321 4.94525 4.34066 4.11542C4.29306 3.21846 4.47533 2.26116 5.0791 1.56413C5.93665 0.625118 7.16286 0.398589 8.2376 1.13157ZM6.05453 2.30466C5.62585 2.87749 5.48496 3.5137 5.58578 4.21873C5.65816 4.554 5.78283 4.83502 5.9764 5.11716C5.99977 5.15261 6.02313 5.18806 6.0472 5.22459C6.27439 5.45826 6.5402 5.60714 6.86508 5.63962C7.17439 5.62959 7.44214 5.48433 7.66342 5.27509C8.05616 4.83241 8.22564 4.2371 8.21533 3.65491C8.16471 3.08434 7.97144 2.53931 7.5389 2.14841C7.03909 1.80899 6.47371 1.82952 6.05453 2.30466Z" fill="#34C759"/>
<path d="M18.7506 6.36075C19.2816 6.74629 19.6293 7.27223 19.8436 7.8906C19.8589 7.93345 19.8743 7.9763 19.8901 8.02045C20.1552 8.88945 20.0681 9.93475 19.6483 10.7422C19.2607 11.3954 18.7469 11.9082 17.993 12.102C17.4075 12.2219 16.8484 12.1366 16.3295 11.8367C16.1407 11.7112 15.979 11.5674 15.8202 11.4062C15.7836 11.3703 15.7836 11.3703 15.7463 11.3336C15.1049 10.6575 14.9335 9.73083 14.9486 8.83192C14.9806 7.97715 15.3316 7.15543 15.9569 6.56492C16.7717 5.89267 17.8481 5.80044 18.7506 6.36075ZM16.6386 7.63166C16.2148 8.20219 16.0928 8.84711 16.1899 9.5445C16.2974 10.0287 16.5325 10.4963 16.953 10.7763C17.2232 10.9296 17.4713 10.9742 17.7733 10.8984C18.2198 10.7093 18.4683 10.3681 18.6629 9.93772C18.87 9.36241 18.8675 8.69098 18.6327 8.12498C18.5645 7.98625 18.4881 7.86 18.3983 7.73435C18.3802 7.70867 18.3621 7.68299 18.3435 7.65653C18.198 7.46869 18.0242 7.36814 17.8123 7.2656C17.7866 7.25271 17.7608 7.23982 17.7342 7.22654C17.2864 7.17694 16.9466 7.30174 16.6386 7.63166Z" fill="#34C759"/>
<path d="M3.98422 6.52341C4.58022 7.00965 4.93394 7.7918 5.03049 8.54589C5.12094 9.48026 4.97247 10.4356 4.38049 11.1906C3.94944 11.697 3.41762 12.0905 2.73422 12.1484C2.03467 12.1908 1.45609 11.9738 0.930322 11.514C0.310738 10.9081 0.00174976 10.0898 -0.0116032 9.23356C-0.0156746 8.46388 0.086779 7.89485 0.468591 7.22654C0.487474 7.19285 0.506356 7.15916 0.525811 7.12446C0.836053 6.61818 1.3175 6.24628 1.87728 6.05466C2.64933 5.87967 3.36361 6.0499 3.98422 6.52341ZM1.95297 7.38279C1.9298 7.39845 1.90664 7.41411 1.88278 7.43024C1.50708 7.717 1.27943 8.21134 1.21078 8.67185C1.16831 9.37925 1.24455 9.97949 1.71127 10.542C1.93661 10.7806 2.18246 10.9279 2.5151 10.945C2.85582 10.92 3.13658 10.7616 3.35922 10.5078C3.78497 9.95466 3.89948 9.30237 3.81133 8.6215C3.69844 8.10759 3.44651 7.62306 3.0017 7.32679C2.66183 7.14917 2.26716 7.1649 1.95297 7.38279Z" fill="#34C759"/>
</g>
<defs>
<clipPath id="clip0_1222_3593">
<rect width="20" height="20" fill="white"/>
</clipPath>
</defs>
</svg>
