<svg width="18" height="18" viewBox="0 0 18 18" fill="none" xmlns="http://www.w3.org/2000/svg">
<path d="M11.5 16.5V9.83335C11.5 9.61233 11.4122 9.40037 11.2559 9.24409C11.0996 9.08781 10.8877 9.00001 10.6667 9.00001H7.33333C7.11232 9.00001 6.90036 9.08781 6.74408 9.24409C6.5878 9.40037 6.5 9.61233 6.5 9.83335V16.5M1.5 7.33335C1.49994 7.0909 1.55278 6.85137 1.65482 6.63144C1.75687 6.41152 1.90566 6.21651 2.09083 6.06001L7.92417 1.06085C8.22499 0.806605 8.60613 0.667114 9 0.667114C9.39387 0.667114 9.77501 0.806605 10.0758 1.06085L15.9092 6.06001C16.0943 6.21651 16.2431 6.41152 16.3452 6.63144C16.4472 6.85137 16.5001 7.0909 16.5 7.33335V14.8333C16.5 15.2754 16.3244 15.6993 16.0118 16.0119C15.6993 16.3244 15.2754 16.5 14.8333 16.5H3.16667C2.72464 16.5 2.30072 16.3244 1.98816 16.0119C1.67559 15.6993 1.5 15.2754 1.5 14.8333V7.33335Z" stroke="#08314E" stroke-width="1.25" stroke-linecap="round" stroke-linejoin="round"/>
</svg>
