<svg width="22" height="19" viewBox="0 0 22 19" fill="none" xmlns="http://www.w3.org/2000/svg">
<path d="M15.1173 10.7577L15.1182 10.7585L15.2288 10.8636C16.6463 12.2429 17.6218 14.2855 17.6723 16.2279C17.6733 16.7733 17.5686 17.1921 17.3082 17.5365L17.2951 17.5538L17.283 17.5719L17.2475 17.6249C16.8885 17.9723 16.3583 18.1049 15.6408 18.1322C14.9303 18.1506 14.2184 18.024 13.4263 17.8832C13.3564 17.8707 13.2858 17.8582 13.2146 17.8456L13.2131 17.8454C13.0427 17.8157 12.8723 17.7862 12.7025 17.7569C12.5985 17.7389 12.4946 17.7207 12.3908 17.7024L12.39 17.7023C11.0191 17.4625 9.78911 17.6584 8.57596 17.8732C6.97562 18.1556 6.31234 18.2675 5.89735 18.248C5.61703 18.2349 5.50989 18.1782 4.97007 17.8062C4.62154 17.545 4.43954 17.2022 4.35474 16.6804C4.19784 14.997 4.94593 13.1606 6.03006 11.737L6.03134 11.7353L6.11288 11.6276C6.30875 11.3769 6.52889 11.138 6.77197 10.8825L6.77267 10.8817C6.82983 10.8215 6.88574 10.7613 6.93931 10.7035C9.08976 8.45879 12.4353 8.38444 14.7567 10.4224C14.8762 10.5294 14.9947 10.6408 15.1173 10.7577ZM9.88339 4.29149C9.85254 5.23234 9.50368 6.14589 8.8714 6.75554C8.48315 7.08913 8.04219 7.23139 7.50085 7.20998C7.10888 7.17085 6.70726 6.92166 6.34654 6.52366C5.69824 5.71845 5.46087 4.58887 5.56844 3.46848C5.66018 2.66063 5.9253 1.95062 6.41806 1.40603L6.42339 1.40015L6.42858 1.39416L6.50646 1.30434C6.75353 1.03998 7.08165 0.853146 7.42518 0.783616L7.43277 0.78208L7.44032 0.780387L7.50659 0.765544C7.99344 0.690171 8.50132 0.89884 8.98243 1.33451C9.67885 2.07524 9.89842 3.10919 9.88339 4.29149ZM12.246 5.11504L12.2461 5.11502L12.2431 5.10424L12.2056 4.96745C11.9771 3.96881 12.1069 2.76666 12.5986 1.92208C13.0043 1.30875 13.3987 0.938929 13.9538 0.791215C14.4875 0.693523 14.983 0.853074 15.4561 1.25522C16.1305 1.89456 16.4279 2.85028 16.4708 3.91409C16.4875 4.95736 16.1854 5.96437 15.5313 6.65957C15.1752 7.01618 14.7614 7.20601 14.3108 7.21414C13.8455 7.20961 13.424 7.02205 13.0468 6.66187C12.6542 6.21784 12.4003 5.71299 12.246 5.11504ZM21.133 9.26758L21.133 9.26757L21.1306 9.27571L21.0894 9.41491C20.9487 9.84237 20.7178 10.1973 20.3764 10.5387L20.3763 10.5387L20.3686 10.5467L20.2891 10.6285C19.9915 10.9112 19.5866 11.0754 19.1606 11.0875C18.7907 11.0658 18.4817 10.9219 18.2255 10.6526C17.8545 10.1786 17.7357 9.59115 17.8036 8.88236C17.9109 8.0977 18.2504 7.4319 18.8229 6.95557C18.9883 6.83794 19.1469 6.74583 19.3091 6.67832L19.3161 6.67539L19.3231 6.67232L19.3882 6.64363C19.769 6.50934 20.2394 6.56942 20.5855 6.79231C20.9375 7.07376 21.1635 7.47873 21.2323 7.94646C21.2694 8.44451 21.2533 8.87735 21.133 9.26758ZM1.15887 9.93413L1.15896 9.93408L1.153 9.92382L1.10038 9.8331C1.01847 9.68058 0.955368 9.5116 0.886789 9.29595L0.886775 9.29591L0.860929 9.21465C0.674434 8.59731 0.726524 7.88593 0.991596 7.28887C1.17862 6.95147 1.44097 6.72746 1.77654 6.61641C2.21797 6.53822 2.61422 6.59743 2.95961 6.79779C3.62944 7.26084 4.01536 7.90335 4.19058 8.74692C4.28372 9.40852 4.21119 9.99512 3.91866 10.4669C3.62727 10.8385 3.35567 11.0146 2.98974 11.0671C2.58615 11.1116 2.20991 11.0025 1.8445 10.7365C1.54786 10.4902 1.33118 10.2423 1.15887 9.93413Z" stroke="#08314E" stroke-width="1.5"/>
</svg>
