<svg width="25" height="24" viewBox="0 0 25 24" fill="none" xmlns="http://www.w3.org/2000/svg">
<g clip-path="url(#clip0_235_3673)">
<path d="M17 2V6.44444M8 2V6.44444M3.5 6.44444C3.5 5.85507 3.73705 5.28984 4.15901 4.8731C4.58097 4.45635 5.15326 4.22222 5.75 4.22222H19.25C19.8467 4.22222 20.419 4.45635 20.841 4.8731C21.2629 5.28984 21.5 5.85507 21.5 6.44444V19.7778C21.5 20.3671 21.2629 20.9324 20.841 21.3491C20.419 21.7659 19.8467 22 19.25 22H5.75C5.15326 22 4.58097 21.7659 4.15901 21.3491C3.73705 20.9324 3.5 20.3671 3.5 19.7778V6.44444Z" stroke="#08314E" stroke-width="1.5" stroke-linecap="round" stroke-linejoin="round"/>
<path d="M14.8206 14.1902C14.891 14.251 14.9596 14.3133 15.028 14.3762C15.0485 14.3949 15.069 14.4137 15.0901 14.4331C15.9333 15.2238 16.5194 16.3968 16.5485 17.5355C16.5498 17.8753 16.4826 18.1929 16.2671 18.4678C16.2536 18.4873 16.2401 18.5068 16.2262 18.5268C15.915 18.8427 15.4778 18.9221 15.0445 18.9378C14.5712 18.95 14.1008 18.8601 13.6369 18.7812C13.5442 18.7656 13.4515 18.7501 13.3588 18.7347C13.3018 18.7251 13.2447 18.7155 13.1877 18.7058C12.518 18.5928 11.911 18.6826 11.2489 18.7957C9.55983 19.0833 9.55983 19.0833 8.97269 18.6926C8.66788 18.4752 8.52688 18.1849 8.4693 17.829C8.36561 16.807 8.83236 15.7381 9.46366 14.9382C9.47894 14.9187 9.49422 14.8993 9.50996 14.8792C9.63029 14.7303 9.76261 14.5923 9.8974 14.4555C9.92759 14.4248 9.95743 14.3938 9.98723 14.3628C11.3182 13.0197 13.3955 12.9817 14.8206 14.1902Z" fill="#08314E"/>
<path d="M15.204 9.36679C15.6867 9.80308 15.8679 10.43 15.893 11.0489C15.9044 11.6737 15.7184 12.318 15.2654 12.7797C15.0053 13.0329 14.6785 13.1868 14.3076 13.1917C13.9255 13.1896 13.5934 13.0355 13.3213 12.78C13.0531 12.4914 12.8834 12.164 12.7835 11.7908C12.7761 11.7645 12.7686 11.7382 12.7609 11.711C12.6134 11.0991 12.6891 10.3512 13.0245 9.80299C13.2748 9.43561 13.5668 9.1427 14.0215 9.03106C14.467 8.94719 14.8663 9.0868 15.204 9.36679Z" fill="#08314E"/>
<path d="M11.6861 9.42037C12.1834 9.92213 12.3093 10.5986 12.2999 11.2676C12.2811 11.8492 12.057 12.4407 11.6145 12.8474C11.3119 13.1021 10.9608 13.2061 10.5638 13.1887C10.2002 13.1582 9.88699 12.9444 9.65066 12.6901C9.20486 12.1621 9.06359 11.4491 9.13045 10.7844C9.18685 10.3006 9.35526 9.84005 9.69742 9.47517C9.71294 9.4579 9.72846 9.44063 9.74445 9.42283C9.93535 9.22332 10.1917 9.07969 10.4689 9.02554C10.4927 9.02041 10.4927 9.02041 10.5169 9.01518C10.9613 8.94275 11.3676 9.13805 11.6861 9.42037Z" fill="#08314E"/>
<path d="M17.968 12.2545C18.2592 12.4724 18.4384 12.7885 18.4882 13.1397C18.5113 13.4277 18.5067 13.7165 18.418 13.994C18.4101 14.0199 18.4021 14.0459 18.3939 14.0726C18.2946 14.3671 18.1301 14.6074 17.9037 14.8258C17.8876 14.8418 17.8716 14.8577 17.8551 14.8741C17.6113 15.1007 17.2828 15.2254 16.9451 15.2305C16.6249 15.2165 16.3482 15.0915 16.1311 14.8646C15.8326 14.5061 15.7589 14.0763 15.8046 13.6294C15.8745 13.1242 16.1067 12.6722 16.5175 12.3477C16.6298 12.2697 16.747 12.2019 16.875 12.1505C16.8908 12.1438 16.9066 12.137 16.9229 12.1301C17.2648 12.0075 17.6704 12.0613 17.968 12.2545Z" fill="#08314E"/>
<path d="M8.33417 12.2446C8.81059 12.5576 9.07587 12.998 9.18898 13.5359C9.25166 13.9512 9.21288 14.3754 8.97272 14.7359C8.76424 14.9977 8.5254 15.1707 8.1822 15.2164C7.84101 15.2544 7.52984 15.1589 7.25451 14.9623C7.05671 14.8052 6.8999 14.6366 6.77504 14.4211C6.76456 14.4037 6.75407 14.3862 6.74326 14.3683C6.67884 14.2539 6.63458 14.1358 6.59385 14.0122C6.58892 13.9973 6.58399 13.9823 6.57891 13.9669C6.4449 13.5417 6.48478 13.0619 6.67422 12.6605C6.82643 12.3873 7.06043 12.189 7.36967 12.0987C7.70614 12.0356 8.03835 12.074 8.33417 12.2446Z" fill="#08314E"/>
</g>
<defs>
<clipPath id="clip0_235_3673">
<rect width="24" height="24" fill="white" transform="translate(0.5)"/>
</clipPath>
</defs>
</svg>
