<svg width="23" height="19" viewBox="0 0 23 19" fill="none" xmlns="http://www.w3.org/2000/svg">
<path d="M15.6173 10.7577L15.6182 10.7585L15.7288 10.8636C17.1463 12.2429 18.1218 14.2855 18.1723 16.2279C18.1733 16.7733 18.0686 17.1921 17.8082 17.5365L17.7951 17.5538L17.783 17.5719L17.7475 17.6249C17.3885 17.9723 16.8583 18.1049 16.1408 18.1322C15.4303 18.1506 14.7184 18.024 13.9263 17.8832C13.8564 17.8707 13.7858 17.8582 13.7146 17.8456L13.7131 17.8454C13.5427 17.8157 13.3723 17.7862 13.2025 17.7569C13.0985 17.7389 12.9946 17.7207 12.8908 17.7024L12.89 17.7023C11.5191 17.4625 10.2891 17.6584 9.07596 17.8732C7.47562 18.1556 6.81234 18.2675 6.39735 18.248C6.11703 18.2349 6.00989 18.1782 5.47007 17.8062C5.12154 17.545 4.93954 17.2022 4.85474 16.6804C4.69784 14.997 5.44593 13.1606 6.53006 11.737L6.53134 11.7353L6.61288 11.6276C6.80875 11.3769 7.02889 11.138 7.27197 10.8825L7.27267 10.8817C7.32983 10.8215 7.38574 10.7613 7.43931 10.7035C9.58976 8.45879 12.9353 8.38444 15.2567 10.4224C15.3762 10.5294 15.4947 10.6408 15.6173 10.7577ZM10.3834 4.29149C10.3525 5.23234 10.0037 6.14589 9.3714 6.75554C8.98315 7.08913 8.54219 7.23139 8.00085 7.20998C7.60888 7.17085 7.20726 6.92166 6.84654 6.52366C6.19824 5.71845 5.96087 4.58887 6.06844 3.46848C6.16018 2.66063 6.4253 1.95062 6.91806 1.40603L6.92339 1.40015L6.92858 1.39416L7.00646 1.30434C7.25353 1.03998 7.58165 0.853146 7.92518 0.783616L7.93277 0.78208L7.94032 0.780387L8.00659 0.765544C8.49344 0.690171 9.00132 0.89884 9.48243 1.33451C10.1788 2.07524 10.3984 3.10919 10.3834 4.29149ZM12.746 5.11504L12.7461 5.11502L12.7431 5.10424L12.7056 4.96745C12.4771 3.96881 12.6069 2.76666 13.0986 1.92208C13.5043 1.30875 13.8987 0.938929 14.4538 0.791215C14.9875 0.693523 15.483 0.853074 15.9561 1.25522C16.6305 1.89456 16.9279 2.85028 16.9708 3.91409C16.9875 4.95736 16.6854 5.96437 16.0313 6.65957C15.6752 7.01618 15.2614 7.20601 14.8108 7.21414C14.3455 7.20961 13.924 7.02205 13.5468 6.66187C13.1542 6.21784 12.9003 5.71299 12.746 5.11504ZM21.633 9.26758L21.633 9.26757L21.6306 9.27571L21.5894 9.41491C21.4487 9.84237 21.2178 10.1973 20.8764 10.5387L20.8763 10.5387L20.8686 10.5467L20.7891 10.6285C20.4915 10.9112 20.0866 11.0754 19.6606 11.0875C19.2907 11.0658 18.9817 10.9219 18.7255 10.6526C18.3545 10.1786 18.2357 9.59115 18.3036 8.88236C18.4109 8.0977 18.7504 7.4319 19.3229 6.95557C19.4883 6.83794 19.6469 6.74583 19.8091 6.67832L19.8161 6.67539L19.8231 6.67232L19.8882 6.64363C20.269 6.50934 20.7394 6.56942 21.0855 6.79231C21.4375 7.07376 21.6635 7.47873 21.7323 7.94646C21.7694 8.44451 21.7533 8.87735 21.633 9.26758ZM1.65887 9.93413L1.65896 9.93408L1.653 9.92382L1.60038 9.8331C1.51847 9.68058 1.45537 9.5116 1.38679 9.29595L1.38678 9.29591L1.36093 9.21465C1.17443 8.59731 1.22652 7.88593 1.4916 7.28887C1.67862 6.95147 1.94097 6.72746 2.27654 6.61641C2.71797 6.53822 3.11422 6.59743 3.45961 6.79779C4.12944 7.26084 4.51536 7.90335 4.69058 8.74692C4.78372 9.40852 4.71119 9.99512 4.41866 10.4669C4.12727 10.8385 3.85567 11.0146 3.48974 11.0671C3.08615 11.1116 2.70991 11.0025 2.3445 10.7365C2.04786 10.4902 1.83118 10.2423 1.65887 9.93413Z" stroke="#08314E" stroke-width="1.5"/>
</svg>
