<svg width="32" height="32" viewBox="0 0 32 32" fill="none" xmlns="http://www.w3.org/2000/svg">
<g clip-path="url(#clip0_243_13468)">
<path d="M26.0007 16.7627L16.0007 26.6667L6.00073 16.7627C5.34113 16.1208 4.82158 15.3493 4.47479 14.4968C4.128 13.6443 3.96148 12.7293 3.98571 11.8092C4.00994 10.8892 4.22441 9.98417 4.6156 9.15111C5.0068 8.31804 5.56624 7.575 6.25871 6.96876C6.95118 6.36253 7.76167 5.90624 8.63914 5.62863C9.51662 5.35102 10.4421 5.2581 11.3572 5.35573C12.2724 5.45335 13.1574 5.7394 13.9566 6.19587C14.7557 6.65233 15.4517 7.26933 16.0007 8.00799C16.5521 7.27469 17.2489 6.66309 18.0475 6.21146C18.8461 5.75984 19.7294 5.47792 20.642 5.38335C21.5546 5.28878 22.4768 5.38359 23.3511 5.66185C24.2253 5.94011 25.0328 6.39582 25.7228 7.00048C26.4128 7.60513 26.9706 8.3457 27.3613 9.17585C27.7519 10.006 27.9671 10.9078 27.9931 11.8249C28.0192 12.742 27.8557 13.6546 27.5129 14.5057C27.1701 15.3567 26.6553 16.1278 26.0007 16.7707" stroke="white" stroke-width="2" stroke-linecap="round" stroke-linejoin="round"/>
</g>
<defs>
<clipPath id="clip0_243_13468">
<rect width="32" height="32" fill="white"/>
</clipPath>
</defs>
</svg>
