<svg width="20" height="20" viewBox="0 0 20 20" fill="none" xmlns="http://www.w3.org/2000/svg">
<g clip-path="url(#clip0_1222_3617)">
<path d="M17.3027 0.58777C17.3977 0.662401 17.4884 0.740119 17.5787 0.820314C17.6049 0.840959 17.6311 0.861604 17.6581 0.882875C18.2763 1.38088 18.6846 2.1887 18.7897 2.96875C18.8728 3.93195 18.733 4.86802 18.1232 5.64453C18.0723 5.70347 18.021 5.76209 17.9693 5.82031C17.9384 5.85959 17.9384 5.85959 17.9068 5.89966C17.4088 6.51787 16.601 6.92619 15.8209 7.03125C14.8569 7.11441 13.9068 6.97751 13.1378 6.35254C13.1095 6.32726 13.0811 6.30198 13.0519 6.27594C12.9262 6.17637 12.9262 6.17637 12.774 6.13281C12.6572 6.18042 12.5577 6.25181 12.4542 6.32324C12.3875 6.36732 12.3208 6.41132 12.254 6.45523C12.2182 6.47901 12.1824 6.50278 12.1455 6.52727C11.9452 6.6582 11.7405 6.78205 11.5362 6.90674C11.2032 7.11101 10.8711 7.31681 10.5401 7.52442C10.0894 7.80701 9.63541 8.08398 9.18028 8.35938C9.20358 8.54939 9.24229 8.72549 9.29747 8.90869C9.53196 9.68888 9.48581 10.6102 9.21416 11.3745C9.17261 11.4901 9.17261 11.4901 9.18028 11.6406C9.24072 11.6982 9.24072 11.6982 9.32509 11.7419C9.37219 11.7693 9.37219 11.7693 9.42025 11.7971C9.47186 11.826 9.47186 11.826 9.52452 11.8555C9.59715 11.8975 9.66973 11.9396 9.74227 11.9818C9.77919 12.0031 9.81612 12.0245 9.85417 12.0464C10.0112 12.1385 10.1646 12.2359 10.318 12.334C10.6125 12.5214 10.9091 12.7054 11.2067 12.8882C11.2495 12.9145 11.2924 12.9409 11.3366 12.968C11.4223 13.0207 11.5081 13.0733 11.5938 13.126C11.7888 13.2458 11.9836 13.366 12.1783 13.4863C12.2116 13.5068 12.2448 13.5273 12.279 13.5484C12.31 13.5676 12.3411 13.5868 12.373 13.6066C12.4019 13.6243 12.4308 13.642 12.4605 13.6602C12.5325 13.7064 12.5992 13.7562 12.6672 13.808C12.7692 13.8796 12.7692 13.8796 12.8758 13.8467C12.9725 13.7871 13.053 13.723 13.1378 13.6475C13.9068 13.0225 14.8569 12.8856 15.8209 12.9688C16.4788 13.0574 17.0845 13.3504 17.5787 13.7891C17.6049 13.8097 17.6311 13.8304 17.6581 13.8516C18.2763 14.3496 18.6846 15.1575 18.7897 15.9375C18.8728 16.9007 18.733 17.8368 18.1232 18.6133C18.0723 18.6722 18.021 18.7308 17.9693 18.7891C17.9487 18.8152 17.9281 18.8414 17.9068 18.8684C17.4088 19.4866 16.601 19.8949 15.8209 20C14.8577 20.0831 13.9216 19.9434 13.1451 19.3335C13.0862 19.2826 13.0276 19.2314 12.9693 19.1797C12.9432 19.159 12.917 19.1384 12.89 19.1171C12.2718 18.6191 11.8635 17.8113 11.7584 17.0313C11.694 16.2849 11.7659 15.6061 12.0709 14.9219C11.7997 14.7192 11.5137 14.5464 11.2229 14.3737C10.9574 14.2156 10.6945 14.0534 10.4327 13.8892C10.3934 13.8645 10.3541 13.8398 10.3136 13.8144C10.2348 13.765 10.1559 13.7155 10.0771 13.666C9.86218 13.5316 9.64652 13.3984 9.4308 13.2653C9.27135 13.1668 9.11226 13.0679 8.954 12.9675C8.91038 12.9399 8.91038 12.9399 8.86588 12.9118C8.81166 12.8775 8.75754 12.843 8.70352 12.8083C8.58048 12.7233 8.58048 12.7233 8.4381 12.6953C8.38367 12.7522 8.38367 12.7522 8.32579 12.8271C7.73162 13.5189 6.77266 14.0238 5.85997 14.1016C4.63107 14.1656 3.51188 13.9385 2.5712 13.1058C1.83704 12.4352 1.26136 11.4769 1.20462 10.4623C1.18354 9.29788 1.18354 9.29788 1.36778 8.75C1.38148 8.7069 1.39518 8.6638 1.40929 8.61939C1.78102 7.55581 2.56165 6.73248 3.56749 6.24024C4.48545 5.83539 5.60432 5.73227 6.5631 6.05469C6.6062 6.06839 6.6493 6.08208 6.69371 6.09619C7.36907 6.33224 7.99651 6.73693 8.4381 7.30469C8.57566 7.25317 8.6977 7.19242 8.82292 7.11578C8.85899 7.09379 8.89506 7.07179 8.93222 7.04912C8.97058 7.0255 9.00893 7.00188 9.04845 6.97754C9.08859 6.95296 9.12873 6.92838 9.17009 6.90306C9.44293 6.73557 9.71411 6.56557 9.98429 6.39383C10.2486 6.22614 10.5151 6.06217 10.7818 5.89844C10.868 5.84534 10.9542 5.79224 11.0403 5.73914C11.1996 5.64106 11.3593 5.54387 11.5195 5.44739C11.5877 5.4057 11.656 5.36399 11.7242 5.32227C11.7714 5.29432 11.7714 5.29432 11.8196 5.26581C11.8478 5.24839 11.8761 5.23096 11.9052 5.21301C11.9298 5.19817 11.9545 5.18333 11.9798 5.16804C11.997 5.15126 12.0142 5.13448 12.0318 5.11719C12.0318 4.96844 12.0193 4.917 11.961 4.7876C11.7914 4.37871 11.7364 3.97059 11.7389 3.53027C11.7391 3.48265 11.7394 3.43503 11.7396 3.38596C11.7561 2.5656 12.0323 1.82648 12.5787 1.21094C12.6097 1.17166 12.6097 1.17166 12.6413 1.13159C13.7372 -0.228875 15.9138 -0.381335 17.3027 0.58777ZM13.587 1.90186C13.1175 2.39553 12.9433 2.95719 12.9482 3.62339C12.9703 4.27794 13.2514 4.81282 13.7251 5.2623C14.2095 5.67967 14.8061 5.89259 15.4458 5.85068C16.1146 5.77465 16.6751 5.47691 17.11 4.96094C17.5311 4.39486 17.6303 3.81447 17.5787 3.125C17.5453 2.94568 17.493 2.7851 17.4225 2.61719C17.4097 2.5838 17.3969 2.55042 17.3837 2.51602C17.1462 1.96736 16.6323 1.55855 16.0943 1.32813C15.1876 0.977923 14.2798 1.26302 13.587 1.90186ZM3.20372 7.96875C2.62504 8.57058 2.39683 9.31086 2.40691 10.1315C2.42588 10.7826 2.66277 11.3763 3.08653 11.875C3.11554 11.9137 3.14454 11.9523 3.17443 11.9922C3.47945 12.346 3.87925 12.5464 4.29747 12.7344C4.32834 12.7485 4.35921 12.7627 4.39101 12.7773C5.07429 13.0454 5.86976 12.9396 6.52403 12.6563C7.28986 12.31 7.78575 11.7045 8.08653 10.9375C8.10768 10.8839 8.10768 10.8839 8.12926 10.8292C8.35538 10.1152 8.2281 9.30976 7.89598 8.65862C7.79381 8.46596 7.6811 8.29145 7.53966 8.125C7.51066 8.08633 7.48165 8.04766 7.45177 8.00781C6.97268 7.45039 6.24599 7.15373 5.53038 7.0752C4.64298 7.0305 3.84425 7.35864 3.20372 7.96875ZM13.587 14.8706C13.1245 15.3569 12.9444 15.9125 12.9509 16.5697C12.9731 17.2364 13.2405 17.7383 13.7115 18.2031C14.1607 18.6082 14.7073 18.8274 15.3131 18.8281C16.0025 18.7848 16.5624 18.5141 17.038 18.0151C17.5186 17.4449 17.6329 16.8178 17.5787 16.0938C17.5453 15.9144 17.493 15.7538 17.4225 15.5859C17.4097 15.5526 17.3969 15.5192 17.3837 15.4848C17.1462 14.9361 16.6323 14.5273 16.0943 14.2969C15.1876 13.9467 14.2798 14.2318 13.587 14.8706Z" fill="#34C759"/>
</g>
<defs>
<clipPath id="clip0_1222_3617">
<rect width="20" height="20" fill="white"/>
</clipPath>
</defs>
</svg>
