<svg width="135" height="26" viewBox="0 0 135 26" fill="none" xmlns="http://www.w3.org/2000/svg">
<path d="M17.3995 13.3708C17.5328 13.4894 17.663 13.6109 17.7927 13.7335C17.8315 13.7701 17.8704 13.8067 17.9104 13.8445C19.5089 15.3865 20.6201 17.6737 20.6753 19.8941C20.6777 20.5569 20.5503 21.1761 20.1418 21.7123C20.1162 21.7502 20.0906 21.7882 20.0642 21.8274C19.4742 22.4433 18.6454 22.5981 17.8239 22.6287C16.9266 22.6524 16.0348 22.4772 15.1554 22.3233C14.9797 22.2929 14.8039 22.2627 14.6282 22.2326C14.52 22.214 14.4119 22.1953 14.3038 22.1764C13.0341 21.9559 11.8834 22.131 10.6281 22.3515C7.42592 22.9125 7.42592 22.9125 6.31281 22.1507C5.73494 21.7266 5.46763 21.1605 5.35846 20.4666C5.16188 18.4737 6.04676 16.3893 7.24361 14.8295C7.27257 14.7915 7.30154 14.7535 7.33139 14.7144C7.5595 14.4241 7.81037 14.1549 8.06591 13.8883C8.12313 13.8285 8.17972 13.768 8.23621 13.7075C10.7595 11.0884 14.6978 11.0144 17.3995 13.3708Z" fill="white"/>
<path d="M18.1262 3.96524C19.0414 4.81601 19.3851 6.03856 19.4326 7.24532C19.4541 8.46374 19.1015 9.72015 18.2428 10.6205C17.7497 11.1142 17.13 11.4142 16.4269 11.4238C15.7026 11.4197 15.0729 11.1192 14.557 10.621C14.0485 10.0583 13.7268 9.41985 13.5375 8.69202C13.5234 8.64071 13.5092 8.5894 13.4946 8.53653C13.215 7.34322 13.3585 5.88493 13.9944 4.81583C14.4689 4.09944 15.0224 3.52827 15.8846 3.31056C16.7291 3.14702 17.4862 3.41927 18.1262 3.96524Z" fill="white"/>
<path d="M11.4571 4.06973C12.3998 5.04815 12.6384 6.36723 12.6207 7.67175C12.5851 8.80598 12.1602 9.9593 11.3213 10.7525C10.7476 11.2491 10.0819 11.4519 9.32928 11.4179C8.64 11.3586 8.04618 10.9415 7.59812 10.4456C6.75297 9.41605 6.48513 8.02577 6.6119 6.72955C6.71882 5.78621 7.0381 4.88809 7.68677 4.17659C7.71619 4.14291 7.74562 4.10922 7.77594 4.07452C8.13785 3.68547 8.6238 3.40539 9.14945 3.2998C9.19445 3.2898 9.19445 3.2898 9.24035 3.27959C10.0828 3.13836 10.8533 3.5192 11.4571 4.06973Z" fill="white"/>
<path d="M23.3664 9.59621C23.9185 10.0211 24.2582 10.6376 24.3526 11.3224C24.3964 11.8839 24.3877 12.4472 24.2196 12.9883C24.2045 13.0389 24.1894 13.0894 24.1739 13.1416C23.9857 13.7158 23.6736 14.1844 23.2445 14.6103C23.2141 14.6414 23.1837 14.6725 23.1524 14.7045C22.6902 15.1464 22.0675 15.3896 21.4272 15.3995C20.8202 15.3723 20.2955 15.1284 19.884 14.686C19.318 13.987 19.1783 13.1489 19.265 12.2773C19.3974 11.2921 19.8377 10.4108 20.6166 9.77808C20.8294 9.62583 21.0517 9.49369 21.2942 9.39346C21.3242 9.38035 21.3542 9.36724 21.3851 9.35373C22.0334 9.11454 22.8021 9.2196 23.3664 9.59621Z" fill="white"/>
<path d="M5.10227 9.57699C6.00549 10.1873 6.50842 11.0461 6.72286 12.095C6.84168 12.9048 6.76816 13.732 6.31287 14.4349C5.91762 14.9455 5.46482 15.2829 4.81417 15.372C4.16733 15.4461 3.5774 15.2599 3.05542 14.8764C2.68043 14.5702 2.38314 14.2414 2.14644 13.8212C2.12655 13.7872 2.10667 13.7532 2.08618 13.7181C1.96404 13.4951 1.88014 13.2648 1.80293 13.0239C1.79358 12.9947 1.78423 12.9655 1.7746 12.9355C1.52054 12.1063 1.59614 11.1707 1.95529 10.388C2.24386 9.85519 2.68749 9.46863 3.27375 9.29238C3.91165 9.16937 4.54146 9.24433 5.10227 9.57699Z" fill="white"/>
<path d="M38.4881 17.9596C37.5278 17.9596 36.6704 17.7953 35.9159 17.4668C35.1751 17.1251 34.5509 16.6586 34.0433 16.0672C33.5357 15.4627 33.1516 14.7794 32.891 14.0171C32.6303 13.2418 32.5 12.4205 32.5 11.5531V5.26494C32.5 5.04154 32.5206 4.84442 32.5617 4.67358C32.6166 4.4896 32.7264 4.34504 32.891 4.23991C33.0693 4.12164 33.3574 4.0625 33.7552 4.0625C34.1531 4.0625 34.4343 4.12164 34.5989 4.23991C34.7773 4.34504 34.887 4.4896 34.9282 4.67358C34.9831 4.84442 35.0105 5.04811 35.0105 5.28466V11.5531C35.0105 12.2759 35.134 12.9461 35.3809 13.5638C35.6415 14.1683 36.0325 14.6545 36.5538 15.0225C37.0751 15.3904 37.7405 15.5744 38.5499 15.5744C39.2769 15.5744 39.9011 15.4101 40.4224 15.0816C40.9437 14.7531 41.3416 14.2865 41.616 13.682C41.904 13.0775 42.0481 12.3613 42.0481 11.5334V5.16638C42.0481 4.95612 42.0687 4.77214 42.1098 4.61444C42.1647 4.45674 42.2813 4.32533 42.4596 4.2202C42.638 4.11507 42.9192 4.0625 43.3033 4.0625C43.7012 4.0625 43.9824 4.12164 44.147 4.23991C44.3254 4.34504 44.4351 4.4896 44.4763 4.67358C44.5174 4.85756 44.538 5.06125 44.538 5.28466V11.5926C44.538 12.4599 44.4077 13.2812 44.147 14.0566C43.8864 14.8188 43.4954 15.4956 42.9741 16.0869C42.4528 16.6652 41.8149 17.1251 41.0604 17.4668C40.3196 17.7953 39.4621 17.9596 38.4881 17.9596Z" fill="white"/>
<path d="M47.6076 17.861C47.2372 17.861 46.9629 17.8019 46.7845 17.6836C46.6199 17.5785 46.517 17.4339 46.4758 17.2499C46.4347 17.066 46.4141 16.8623 46.4141 16.6389V9.32565C46.4141 9.0891 46.4347 8.88541 46.4758 8.71457C46.517 8.53059 46.6199 8.39261 46.7845 8.30062C46.9629 8.19549 47.2441 8.14292 47.6282 8.14292C47.9986 8.14292 48.2661 8.18892 48.4307 8.28091C48.6091 8.3729 48.7188 8.49117 48.76 8.63572C48.8149 8.76714 48.8423 8.89855 48.8423 9.02997L48.6777 9.38479C48.7463 9.27966 48.8423 9.15481 48.9658 9.01026C49.0892 8.85256 49.2538 8.70143 49.4596 8.55688C49.6654 8.39918 49.9123 8.27433 50.2004 8.18234C50.4885 8.07721 50.8315 8.02465 51.2293 8.02465C51.3939 8.02465 51.5654 8.04436 51.7438 8.08378C51.9358 8.11007 52.121 8.15606 52.2994 8.22177C52.4914 8.27433 52.6629 8.34661 52.8138 8.4386C52.9647 8.53059 53.0813 8.6423 53.1636 8.77371C53.2459 8.89198 53.2871 9.02997 53.2871 9.18767C53.2871 9.60819 53.1773 9.96301 52.9579 10.2521C52.7384 10.5412 52.4777 10.6858 52.1759 10.6858C51.9701 10.6858 51.8192 10.6661 51.7232 10.6267C51.6272 10.5872 51.5448 10.5412 51.4763 10.4887C51.4214 10.4361 51.3322 10.3901 51.2087 10.3507C51.099 10.3113 50.9207 10.2915 50.6737 10.2915C50.4679 10.2915 50.2553 10.3244 50.0358 10.3901C49.83 10.4558 49.638 10.5544 49.4596 10.6858C49.2813 10.8172 49.1372 10.988 49.0275 11.1983C48.9177 11.3954 48.8629 11.6254 48.8629 11.8882V16.6783C48.8629 16.9017 48.8423 17.1054 48.8011 17.2894C48.76 17.4602 48.6502 17.5982 48.4719 17.7033C48.2936 17.8085 48.0055 17.861 47.6076 17.861Z" fill="white"/>
<path d="M59.7287 17.723C59.0565 17.723 58.4529 17.6048 57.9179 17.3682C57.3966 17.1185 56.9507 16.7769 56.5803 16.3432C56.2237 15.8964 55.9493 15.3839 55.7572 14.8056C55.5789 14.2274 55.4897 13.6032 55.4897 12.933C55.5034 12.2628 55.6063 11.6385 55.7984 11.0603C55.9904 10.469 56.2648 9.95644 56.6215 9.52277C56.9919 9.0891 57.4378 8.74743 57.9591 8.49774C58.4804 8.24805 59.0703 8.12321 59.7287 8.12321C60.3598 8.12321 60.9497 8.24805 61.4984 8.49774C62.0609 8.74743 62.5548 9.09568 62.98 9.54248C63.419 9.98929 63.762 10.5084 64.0089 11.0997C64.2559 11.678 64.3793 12.3022 64.3793 12.9724C64.3793 13.6558 64.2559 14.2865 64.0089 14.8648C63.762 15.443 63.4259 15.9489 63.0006 16.3826C62.5753 16.8031 62.0815 17.1317 61.519 17.3682C60.9566 17.6048 60.3598 17.723 59.7287 17.723ZM55.6132 21.8232C55.2428 21.8232 54.9684 21.7706 54.7901 21.6655C54.6117 21.5603 54.502 21.4224 54.4608 21.2515C54.4197 21.0807 54.3991 20.8836 54.3991 20.6602V9.32565C54.3991 9.10225 54.4197 8.90512 54.4608 8.73429C54.502 8.56345 54.6049 8.42546 54.7695 8.32033C54.9478 8.20206 55.2222 8.14292 55.5926 8.14292C55.9493 8.14292 56.2305 8.19549 56.4363 8.30062C56.6421 8.40575 56.7793 8.58316 56.8479 8.83285V20.6404C56.8616 20.8638 56.841 21.061 56.7861 21.2318C56.745 21.4158 56.6352 21.5603 56.4569 21.6655C56.2785 21.7706 55.9973 21.8232 55.6132 21.8232ZM59.3995 15.5153C59.8796 15.5153 60.3118 15.4101 60.6959 15.1999C61.08 14.9765 61.3818 14.6742 61.6013 14.2931C61.8345 13.8989 61.9511 13.4586 61.9511 12.9724C61.9511 12.473 61.8345 12.0328 61.6013 11.6517C61.3818 11.2706 61.08 10.9749 60.6959 10.7646C60.3118 10.5412 59.8796 10.4295 59.3995 10.4295C58.9331 10.4295 58.5078 10.5412 58.1237 10.7646C57.7396 10.988 57.4309 11.2903 57.1977 11.6714C56.9782 12.0394 56.8684 12.473 56.8684 12.9724C56.8684 13.4586 56.9782 13.8989 57.1977 14.2931C57.4309 14.6742 57.7396 14.9765 58.1237 15.1999C58.5078 15.4101 58.9331 15.5153 59.3995 15.5153Z" fill="white"/>
<path d="M69.904 17.8413C69.2729 17.8413 68.6899 17.7362 68.1549 17.5259C67.6336 17.3025 67.174 16.9871 66.7762 16.5797C66.3783 16.1723 66.0696 15.6861 65.8502 15.121C65.6307 14.5559 65.5209 13.9317 65.5209 13.2484V9.32565C65.5209 9.10225 65.5415 8.90512 65.5826 8.73429C65.6238 8.55031 65.7335 8.40575 65.9119 8.30062C66.0902 8.19549 66.3646 8.14292 66.735 8.14292C67.1328 8.14292 67.4141 8.19549 67.5787 8.30062C67.757 8.40575 67.8668 8.55031 67.9079 8.73429C67.9491 8.91827 67.9697 9.12196 67.9697 9.34536V13.2484C67.9697 13.7215 68.052 14.1289 68.2166 14.4705C68.3949 14.8122 68.6487 15.0816 68.978 15.2787C69.3072 15.4627 69.7119 15.5547 70.1921 15.5547C70.6859 15.5547 71.1043 15.4627 71.4473 15.2787C71.804 15.0816 72.0784 14.8122 72.2704 14.4705C72.4625 14.1157 72.5585 13.7083 72.5585 13.2484V9.30594C72.5585 9.08253 72.5791 8.88541 72.6202 8.71457C72.6614 8.53059 72.7711 8.39261 72.9495 8.30062C73.1278 8.19549 73.4091 8.14292 73.7932 8.14292C74.1773 8.14292 74.4517 8.19549 74.6163 8.30062C74.7809 8.40575 74.8838 8.55031 74.925 8.73429C74.9798 8.91827 75.0073 9.11539 75.0073 9.32565V16.7177C75.0073 16.9148 74.9798 17.0988 74.925 17.2697C74.8838 17.4405 74.7741 17.5785 74.5957 17.6836C74.4311 17.7887 74.1567 17.8413 73.7726 17.8413C73.4982 17.8413 73.2787 17.8085 73.1141 17.7427C72.9632 17.6902 72.8466 17.6179 72.7643 17.5259C72.6957 17.4208 72.6477 17.3157 72.6202 17.2105C72.6065 17.1054 72.5997 17.0003 72.5997 16.8951L72.7643 16.3629C72.682 16.4812 72.5585 16.6257 72.3939 16.7966C72.2293 16.9543 72.0235 17.1185 71.7766 17.2894C71.5433 17.4471 71.269 17.5785 70.9534 17.6836C70.6379 17.7887 70.2881 17.8413 69.904 17.8413Z" fill="white"/>
<path d="M81.8346 17.723C81.1624 17.723 80.5588 17.6048 80.0237 17.3682C79.5024 17.1185 79.0566 16.7769 78.6862 16.3432C78.3295 15.8964 78.0551 15.3839 77.8631 14.8056C77.6847 14.2274 77.5956 13.6032 77.5956 12.933C77.6093 12.2628 77.7122 11.6385 77.9042 11.0603C78.0963 10.469 78.3707 9.95644 78.7273 9.52277C79.0977 9.0891 79.5436 8.74743 80.0649 8.49774C80.5862 8.24805 81.1761 8.12321 81.8346 8.12321C82.4656 8.12321 83.0555 8.24805 83.6043 8.49774C84.1667 8.74743 84.6606 9.09568 85.0859 9.54248C85.5249 9.98929 85.8678 10.5084 86.1148 11.0997C86.3617 11.678 86.4852 12.3022 86.4852 12.9724C86.4852 13.6558 86.3617 14.2865 86.1148 14.8648C85.8678 15.443 85.5317 15.9489 85.1064 16.3826C84.6812 16.8031 84.1873 17.1317 83.6249 17.3682C83.0624 17.6048 82.4656 17.723 81.8346 17.723ZM77.719 21.8232C77.3486 21.8232 77.0743 21.7706 76.8959 21.6655C76.7176 21.5603 76.6078 21.4224 76.5667 21.2515C76.5255 21.0807 76.5049 20.8836 76.5049 20.6602V9.32565C76.5049 9.10225 76.5255 8.90512 76.5667 8.73429C76.6078 8.56345 76.7107 8.42546 76.8753 8.32033C77.0537 8.20206 77.3281 8.14292 77.6985 8.14292C78.0551 8.14292 78.3364 8.19549 78.5421 8.30062C78.7479 8.40575 78.8851 8.58316 78.9537 8.83285V20.6404C78.9674 20.8638 78.9468 21.061 78.892 21.2318C78.8508 21.4158 78.7411 21.5603 78.5627 21.6655C78.3844 21.7706 78.1031 21.8232 77.719 21.8232ZM81.5053 15.5153C81.9855 15.5153 82.4176 15.4101 82.8017 15.1999C83.1859 14.9765 83.4877 14.6742 83.7072 14.2931C83.9404 13.8989 84.057 13.4586 84.057 12.9724C84.057 12.473 83.9404 12.0328 83.7072 11.6517C83.4877 11.2706 83.1859 10.9749 82.8017 10.7646C82.4176 10.5412 81.9855 10.4295 81.5053 10.4295C81.0389 10.4295 80.6136 10.5412 80.2295 10.7646C79.8454 10.988 79.5367 11.2903 79.3035 11.6714C79.084 12.0394 78.9743 12.473 78.9743 12.9724C78.9743 13.4586 79.084 13.8989 79.3035 14.2931C79.5367 14.6742 79.8454 14.9765 80.2295 15.1999C80.6136 15.4101 81.0389 15.5153 81.5053 15.5153Z" fill="white"/>
<path d="M93.0181 17.723C92.3459 17.723 91.7423 17.6048 91.2073 17.3682C90.686 17.1185 90.2401 16.7769 89.8697 16.3432C89.513 15.8964 89.2387 15.3839 89.0466 14.8056C88.8683 14.2274 88.7791 13.6032 88.7791 12.933C88.7928 12.2628 88.8957 11.6385 89.0878 11.0603C89.2798 10.469 89.5542 9.95644 89.9109 9.52277C90.2813 9.0891 90.7271 8.74743 91.2484 8.49774C91.7697 8.24805 92.3596 8.12321 93.0181 8.12321C93.6492 8.12321 94.2391 8.24805 94.7878 8.49774C95.3503 8.74743 95.8441 9.09568 96.2694 9.54248C96.7084 9.98929 97.0514 10.5084 97.2983 11.0997C97.5452 11.678 97.6687 12.3022 97.6687 12.9724C97.6687 13.6558 97.5452 14.2865 97.2983 14.8648C97.0514 15.443 96.7153 15.9489 96.29 16.3826C95.8647 16.8031 95.3709 17.1317 94.8084 17.3682C94.2459 17.6048 93.6492 17.723 93.0181 17.723ZM88.9026 21.8232C88.5322 21.8232 88.2578 21.7706 88.0795 21.6655C87.9011 21.5603 87.7914 21.4224 87.7502 21.2515C87.7091 21.0807 87.6885 20.8836 87.6885 20.6602V9.32565C87.6885 9.10225 87.7091 8.90512 87.7502 8.73429C87.7914 8.56345 87.8943 8.42546 88.0589 8.32033C88.2372 8.20206 88.5116 8.14292 88.882 8.14292C89.2387 8.14292 89.5199 8.19549 89.7257 8.30062C89.9315 8.40575 90.0686 8.58316 90.1372 8.83285V20.6404C90.151 20.8638 90.1304 21.061 90.0755 21.2318C90.0344 21.4158 89.9246 21.5603 89.7463 21.6655C89.5679 21.7706 89.2867 21.8232 88.9026 21.8232ZM92.6889 15.5153C93.169 15.5153 93.6012 15.4101 93.9853 15.1999C94.3694 14.9765 94.6712 14.6742 94.8907 14.2931C95.1239 13.8989 95.2405 13.4586 95.2405 12.9724C95.2405 12.473 95.1239 12.0328 94.8907 11.6517C94.6712 11.2706 94.3694 10.9749 93.9853 10.7646C93.6012 10.5412 93.169 10.4295 92.6889 10.4295C92.2225 10.4295 91.7972 10.5412 91.4131 10.7646C91.0289 10.988 90.7203 11.2903 90.4871 11.6714C90.2676 12.0394 90.1578 12.473 90.1578 12.9724C90.1578 13.4586 90.2676 13.8989 90.4871 14.2931C90.7203 14.6742 91.0289 14.9765 91.4131 15.1999C91.7972 15.4101 92.2225 15.5153 92.6889 15.5153Z" fill="white"/>
<path d="M100.924 21.7443C100.485 21.5603 100.231 21.3501 100.163 21.1135C100.094 20.8901 100.156 20.5879 100.348 20.2068L105.657 8.81313C105.849 8.39261 106.055 8.14292 106.274 8.06407C106.494 7.97208 106.83 8.01808 107.283 8.20206C107.708 8.38604 107.955 8.58973 108.024 8.81313C108.106 9.03654 108.058 9.33879 107.879 9.71989L102.529 21.1727C102.351 21.5932 102.152 21.8363 101.932 21.902C101.713 21.9809 101.377 21.9283 100.924 21.7443ZM102.838 16.9148L98.0844 9.91702C97.8375 9.5622 97.7346 9.26651 97.7758 9.02997C97.8306 8.79342 98.0501 8.56345 98.4343 8.34004C98.8595 8.09035 99.1888 7.99179 99.422 8.04436C99.6689 8.09693 99.9159 8.30719 100.163 8.67515L103.929 14.2931L102.838 16.9148Z" fill="white"/>
<path d="M109.736 18.6104C109.419 18.6104 109.196 18.5505 109.068 18.4306C108.939 18.3021 108.875 18.0795 108.875 17.7626C108.875 17.5399 108.901 17.3687 108.952 17.2488C109.012 17.1203 109.106 17.0261 109.235 16.9662C109.363 16.9062 109.534 16.8762 109.749 16.8762C110.065 16.8762 110.288 16.9405 110.417 17.0689C110.545 17.1974 110.609 17.4243 110.609 17.7498C110.609 17.9639 110.579 18.1351 110.519 18.2636C110.468 18.392 110.378 18.482 110.25 18.5333C110.13 18.5847 109.958 18.6104 109.736 18.6104Z" fill="white"/>
<path d="M114.442 18.6361C114.031 18.6361 113.628 18.5676 113.234 18.4306C112.849 18.285 112.498 18.0752 112.181 17.8011C111.873 17.5271 111.624 17.1931 111.436 16.7992C111.256 16.3967 111.166 15.9428 111.166 15.4375C111.166 14.9322 111.256 14.4826 111.436 14.0887C111.624 13.6947 111.873 13.3608 112.181 13.0867C112.489 12.8127 112.836 12.6028 113.222 12.4573C113.607 12.3117 114.005 12.2389 114.416 12.2389C114.716 12.2389 114.999 12.2817 115.264 12.3673C115.538 12.453 115.774 12.5557 115.971 12.6756C116.167 12.7955 116.309 12.9154 116.394 13.0353C116.506 13.1381 116.6 13.2366 116.677 13.3308C116.754 13.425 116.78 13.5406 116.754 13.6776C116.728 13.7633 116.69 13.8446 116.639 13.9217C116.587 13.9902 116.523 14.063 116.446 14.1401C116.24 14.3713 116.039 14.4569 115.842 14.397C115.731 14.337 115.619 14.2728 115.508 14.2043C115.397 14.1358 115.281 14.0716 115.161 14.0116C115.05 13.9431 114.934 13.8874 114.814 13.8446C114.695 13.8018 114.562 13.7804 114.416 13.7804C114.091 13.7804 113.8 13.8532 113.543 13.9988C113.294 14.1358 113.097 14.3285 112.952 14.5768C112.815 14.8252 112.746 15.1121 112.746 15.4375C112.746 15.7629 112.815 16.0541 112.952 16.311C113.097 16.5594 113.294 16.7563 113.543 16.9019C113.791 17.0389 114.074 17.1075 114.39 17.1075C114.545 17.1075 114.69 17.0903 114.827 17.0561C114.973 17.0133 115.101 16.9619 115.213 16.9019C115.324 16.8334 115.414 16.7649 115.482 16.6964C115.577 16.6364 115.662 16.5808 115.739 16.5294C115.816 16.478 115.898 16.4523 115.983 16.4523C116.086 16.4523 116.185 16.4909 116.279 16.5679C116.382 16.6364 116.493 16.7478 116.613 16.9019C116.724 17.0304 116.784 17.1546 116.793 17.2745C116.81 17.3944 116.784 17.51 116.716 17.6213C116.656 17.7326 116.553 17.8354 116.407 17.9296C116.305 18.0324 116.15 18.1394 115.945 18.2507C115.748 18.3535 115.517 18.4434 115.251 18.5205C114.994 18.5976 114.724 18.6361 114.442 18.6361Z" fill="white"/>
<path d="M120.721 18.6875C120.31 18.6875 119.908 18.6104 119.514 18.4563C119.128 18.2936 118.777 18.0666 118.461 17.7754C118.152 17.4843 117.904 17.1417 117.715 16.7478C117.536 16.3538 117.446 15.9214 117.446 15.4503C117.446 14.9965 117.531 14.5725 117.703 14.1786C117.874 13.7847 118.109 13.4378 118.409 13.1381C118.709 12.8384 119.051 12.6071 119.437 12.4444C119.831 12.2731 120.25 12.1875 120.696 12.1875C121.295 12.1875 121.839 12.3331 122.327 12.6243C122.815 12.9069 123.205 13.2922 123.496 13.7804C123.787 14.2685 123.933 14.8209 123.933 15.4375C123.933 15.9256 123.843 16.371 123.663 16.7735C123.483 17.1674 123.239 17.51 122.931 17.8011C122.623 18.0837 122.276 18.3021 121.89 18.4563C121.514 18.6104 121.124 18.6875 120.721 18.6875ZM120.696 17.1717C120.978 17.1717 121.248 17.1032 121.505 16.9662C121.77 16.8206 121.985 16.615 122.147 16.3496C122.319 16.0841 122.404 15.7715 122.404 15.4118C122.404 15.0778 122.327 14.7824 122.173 14.5254C122.027 14.2685 121.826 14.0673 121.569 13.9217C121.312 13.7761 121.017 13.7033 120.683 13.7033C120.366 13.7033 120.079 13.7804 119.822 13.9345C119.565 14.0801 119.36 14.2857 119.206 14.5511C119.06 14.8081 118.987 15.0992 118.987 15.4247C118.987 15.7843 119.069 16.0969 119.231 16.3624C119.394 16.6193 119.604 16.8206 119.861 16.9662C120.126 17.1032 120.405 17.1717 120.696 17.1717Z" fill="white"/>
<path d="M125.559 18.5976C125.328 18.5976 125.157 18.5633 125.045 18.4948C124.942 18.4263 124.878 18.3321 124.853 18.2122C124.827 18.0923 124.814 17.9639 124.814 17.8268V13.0225C124.814 12.8855 124.827 12.7613 124.853 12.65C124.878 12.5386 124.947 12.4487 125.058 12.3802C125.169 12.3117 125.345 12.2774 125.585 12.2774C125.833 12.2774 126.013 12.3288 126.124 12.4316C126.244 12.5343 126.304 12.6971 126.304 12.9197L126.188 13.2794C126.231 13.1852 126.304 13.0824 126.407 12.9711C126.51 12.8598 126.634 12.7484 126.779 12.6371C126.934 12.5258 127.105 12.4359 127.293 12.3673C127.482 12.2988 127.679 12.2646 127.884 12.2646C128.167 12.2646 128.424 12.3117 128.655 12.4059C128.895 12.5001 129.105 12.6371 129.284 12.8169C129.473 12.9968 129.635 13.2152 129.772 13.4721C129.918 13.2494 130.081 13.0482 130.261 12.8683C130.44 12.6799 130.65 12.5343 130.89 12.4316C131.13 12.3202 131.4 12.2646 131.699 12.2646C132.196 12.2646 132.611 12.3888 132.945 12.6371C133.288 12.8855 133.545 13.2409 133.716 13.7033C133.896 14.1572 133.986 14.701 133.986 15.3347V17.8268C133.986 17.9724 133.969 18.1052 133.935 18.225C133.909 18.3364 133.84 18.4263 133.729 18.4948C133.626 18.5633 133.455 18.5976 133.215 18.5976C132.975 18.5976 132.8 18.559 132.688 18.482C132.577 18.4135 132.509 18.3235 132.483 18.2122C132.457 18.0923 132.444 17.9596 132.444 17.814V15.3219C132.444 15.005 132.406 14.731 132.329 14.4998C132.252 14.2685 132.136 14.0887 131.982 13.9602C131.836 13.8318 131.644 13.7675 131.404 13.7675C131.147 13.7675 130.924 13.8318 130.736 13.9602C130.556 14.0801 130.415 14.2557 130.312 14.4869C130.209 14.7181 130.158 15.0007 130.158 15.3347V17.8397C130.158 17.9853 130.136 18.1223 130.094 18.2507C130.051 18.3706 129.965 18.4606 129.837 18.5205C129.717 18.589 129.541 18.6147 129.31 18.5976C129.096 18.589 128.938 18.5462 128.835 18.4691C128.741 18.392 128.681 18.2978 128.655 18.1865C128.638 18.0666 128.629 17.9424 128.629 17.814V15.3219C128.629 15.005 128.591 14.731 128.514 14.4998C128.437 14.26 128.321 14.0801 128.167 13.9602C128.021 13.8318 127.824 13.7675 127.576 13.7675C127.31 13.7675 127.083 13.8361 126.895 13.9731C126.715 14.1101 126.578 14.2942 126.484 14.5254C126.39 14.7567 126.343 15.0222 126.343 15.3219V17.8397C126.343 17.9767 126.326 18.1052 126.291 18.225C126.266 18.3449 126.197 18.4349 126.086 18.4948C125.983 18.5633 125.807 18.5976 125.559 18.5976Z" fill="white"/>
</svg>
